<?xml version="1.0" encoding="UTF-8" standalone="no"?>
<!-- Created with Inkscape (http://www.inkscape.org/) -->

<svg
   xmlns:dc="http://purl.org/dc/elements/1.1/"
   xmlns:cc="http://creativecommons.org/ns#"
   xmlns:rdf="http://www.w3.org/1999/02/22-rdf-syntax-ns#"
   xmlns:svg="http://www.w3.org/2000/svg"
   xmlns="http://www.w3.org/2000/svg"
   xmlns:xlink="http://www.w3.org/1999/xlink"
   xmlns:inkscape="http://www.inkscape.org/namespaces/inkscape"
   version="1.2"
   width="861.29279"
   height="703.45654"
   id="svg2">
  <defs
     id="defs4">
    <linearGradient
       id="linearGradient4399">
      <stop
         id="stop4401"
         style="stop-color:#ffcc00;stop-opacity:1"
         offset="0" />
      <stop
         id="stop4403"
         style="stop-color:#ffdd55;stop-opacity:1"
         offset="1" />
    </linearGradient>
    <inkscape:path-effect
       effect="skeletal"
       id="path-effect3826" />
    <inkscape:path-effect
       effect="skeletal"
       id="path-effect3824" />
    <inkscape:path-effect
       effect="skeletal"
       id="path-effect3818" />
    <inkscape:path-effect
       effect="skeletal"
       id="path-effect3814" />
    <linearGradient
       x1="325.2691"
       y1="1518.4132"
       x2="856.60931"
       y2="1518.4132"
       id="linearGradient4405"
       xlink:href="#linearGradient4399"
       gradientUnits="userSpaceOnUse" />
    <linearGradient
       x1="325.2691"
       y1="1518.4132"
       x2="856.60931"
       y2="1518.4132"
       id="linearGradient4409"
       xlink:href="#linearGradient4399"
       gradientUnits="userSpaceOnUse" />
  </defs>
  <metadata
     id="metadata7">
    <rdf:RDF>
      <cc:Work
         rdf:about="">
        <dc:format>image/svg+xml</dc:format>
        <dc:type
           rdf:resource="http://purl.org/dc/dcmitype/StillImage" />
        <dc:title></dc:title>
      </cc:Work>
    </rdf:RDF>
  </metadata>
  <g
     transform="translate(4961.2927,-407.47609)"
     id="layer1">
    <flowRoot
       id="flowRoot3858"
       xml:space="preserve"
       style="font-size:18px;font-style:normal;font-weight:normal;line-height:125%;letter-spacing:0px;word-spacing:0px;fill:#000000;fill-opacity:1;stroke:none;font-family:Sans"><flowRegion
         id="flowRegion3860"><rect
           width="20"
           height="131.42857"
           x="-674.28571"
           y="1409.505"
           id="rect3862" /></flowRegion><flowPara
         id="flowPara3864" /></flowRoot>    <flowRoot
       id="flowRoot4415"
       xml:space="preserve"
       style="font-size:18px;font-style:normal;font-weight:normal;line-height:125%;letter-spacing:0px;word-spacing:0px;fill:#000000;fill-opacity:1;stroke:none;font-family:Sans"><flowRegion
         id="flowRegion4417"><rect
           width="854.28571"
           height="274.28571"
           x="-1948.5714"
           y="249.60307"
           id="rect4419" /></flowRegion><flowPara
         id="flowPara4421" /></flowRoot>    <g
       transform="matrix(1.4140458,0,0,1.4140458,-4138.5699,840.79931)"
       id="flowRoot4423"
       style="font-size:40px;font-style:normal;font-weight:normal;line-height:125%;letter-spacing:0px;word-spacing:0px;fill:#000000;fill-opacity:1;stroke:none;font-family:Sans">
      <path
         d="m -546.92375,-101.1375 0,-56.88 -6.696,0 -9.792,25.2 -1.008,0 -9.792,-25.2 -6.696,0 0,56.88 7.776,0 0,-31.176 -0.36,-6.336 0.792,0 6.696,16.848 4.176,0 6.696,-16.776 0.792,0 -0.36,6.264 0,31.176 7.776,0"
         id="path3695"
         style="font-size:72px;font-variant:normal;font-stretch:normal;line-height:117.99999475%;fill:#000000;font-family:Steps-Mono;-inkscape-font-specification:Steps-Mono" />
      <path
         d="m -515.24375,-107.4015 0,-30.168 -6.192,-6.264 -12.816,0 -6.192,6.264 0,30.168 6.192,6.264 12.816,0 6.192,-6.264 m -8.712,-32.976 1.44,1.296 0,33.192 -1.44,1.296 -7.776,0 -1.44,-1.296 0,-33.192 1.44,-1.296 7.776,0"
         id="path3697"
         style="font-size:72px;font-variant:normal;font-stretch:normal;line-height:117.99999475%;fill:#000000;font-family:Steps-Mono;-inkscape-font-specification:Steps-Mono" />
      <path
         d="m -493.06775,-140.3775 13.176,0 0,-3.456 -13.176,0 0,-11.16 -7.272,0 0,11.16 -7.776,0 0,3.456 7.776,0 0,32.976 6.408,6.264 14.04,0 0,-3.456 -11.664,0 -1.512,-1.296 0,-34.488"
         id="path3699"
         style="font-size:72px;font-variant:normal;font-stretch:normal;line-height:117.99999475%;fill:#000000;font-family:Steps-Mono;-inkscape-font-specification:Steps-Mono" />
      <path
         d="m -444.46775,-125.1855 -22.752,0 0,5.76 22.752,0 0,-5.76"
         id="path3701"
         style="font-size:72px;font-variant:normal;font-stretch:normal;line-height:117.99999475%;fill:#000000;font-family:Steps-Mono;-inkscape-font-specification:Steps-Mono" />
      <path
         d="m -414.37175,-109.1295 -9.216,4.68 -1.44,-1.296 0,-33.408 1.44,-1.296 9.216,0 0,31.32 m 7.272,-52.488 -7.272,0 0,17.712 -11.736,0 -6.192,6.336 0,31.536 7.488,5.904 10.44,-5.688 0,4.68 7.272,0 0,-60.48"
         id="path3703"
         style="font-size:72px;font-variant:normal;font-stretch:normal;line-height:117.99999475%;fill:#000000;font-family:Steps-Mono;-inkscape-font-specification:Steps-Mono" />
      <path
         d="m -388.66775,-149.8815 9.432,0 0,-9.936 -9.432,0 0,9.936 m 19.224,48.744 0,-3.456 -9.648,0 -1.152,-1.296 0,-38.016 -16.704,0 0,3.456 8.352,0 1.152,1.296 0,33.264 -1.152,1.296 -9.648,0 0,3.456 28.8,0"
         id="path3705"
         style="font-size:72px;font-variant:normal;font-stretch:normal;line-height:117.99999475%;fill:#000000;font-family:Steps-Mono;-inkscape-font-specification:Steps-Mono" />
      <path
         d="m -345.53975,-150.5295 -4.392,-11.664 -4.176,0 -1.296,1.08 6.696,11.088 2.664,0 0.504,-0.504 m 10.584,11.88 -6.336,-5.184 -11.592,0 -6.336,5.184 0,32.328 6.192,5.184 16.92,0 0,-3.456 -14.76,0 -1.08,-1.296 0,-16.416 16.992,0 0,-16.344 m -7.272,12.96 -9.72,0 0,-13.392 1.08,-1.296 7.56,0 1.08,1.296 0,13.392"
         id="path3707"
         style="font-size:72px;font-variant:normal;font-stretch:normal;line-height:117.99999475%;fill:#000000;font-family:Steps-Mono;-inkscape-font-specification:Steps-Mono" />
      <path
         d="m -299.09975,-104.5935 -18.288,0 17.856,-35.784 -0.072,0 0,-3.456 -24.192,0 0,3.456 16.416,0 -18.216,35.784 0,3.456 26.496,0 0,-3.456"
         id="path3709"
         style="font-size:72px;font-variant:normal;font-stretch:normal;line-height:117.99999475%;fill:#000000;font-family:Steps-Mono;-inkscape-font-specification:Steps-Mono" />
      <path
         d="m -262.95575,-138.6495 -6.336,-5.184 -11.592,0 -6.336,5.184 0,32.328 6.192,5.184 16.92,0 0,-3.456 -14.76,0 -1.08,-1.296 0,-16.416 16.992,0 0,-16.344 m -7.272,12.96 -9.72,0 0,-13.392 1.08,-1.296 7.56,0 1.08,1.296 0,13.392"
         id="path3711"
         style="font-size:72px;font-variant:normal;font-stretch:normal;line-height:117.99999475%;fill:#000000;font-family:Steps-Mono;-inkscape-font-specification:Steps-Mono" />
      <path
         d="m -206.00375,-130.9455 6.84,0 -1.584,10.08 -6.84,0 1.584,-10.08 m 8.928,10.08 1.584,-10.08 5.616,0 0,-6.768 -4.608,0 2.448,-15.552 -3.672,0 -2.448,15.552 -6.84,0 2.448,-15.552 -3.672,0 -2.448,15.552 -6.624,0 0,6.768 5.616,0 -1.584,10.08 -5.616,0 0,6.768 4.536,0 -2.016,12.96 3.672,0 2.016,-12.96 6.84,0 -2.016,12.96 3.672,0 2.016,-12.96 6.696,0 0,-6.768 -5.616,0"
         id="path3713"
         style="font-size:72px;font-variant:normal;font-stretch:normal;line-height:117.99999475%;fill:#000000;font-family:Steps-Mono;-inkscape-font-specification:Steps-Mono" />
      <path
         d="m -158.69975,-139.4415 0,7.992 7.272,0 0,-7.488 -9.432,-5.976 -7.848,5.976 0,-4.968 -12.888,0 0,3.456 5.688,0 0,35.856 -6.408,0 0,3.456 25.056,0 0,-3.456 -11.376,0 0,-30.888 7.416,-5.544 2.52,1.584"
         id="path3715"
         style="font-size:72px;font-variant:normal;font-stretch:normal;line-height:117.99999475%;fill:#000000;font-family:Steps-Mono;-inkscape-font-specification:Steps-Mono" />
      <path
         d="m -119.45975,-138.1455 -5.472,-5.688 -13.896,0 0,3.456 11.016,0 1.152,1.296 0,15.192 -13.68,0 -5.616,10.08 0,2.592 5.616,10.08 20.88,0 0,-37.008 m -7.2,33.552 -10.368,0 -2.16,-7.128 0,-1.584 2.16,-7.128 10.368,0 0,15.84"
         id="path3717"
         style="font-size:72px;font-variant:normal;font-stretch:normal;line-height:117.99999475%;fill:#000000;font-family:Steps-Mono;-inkscape-font-specification:Steps-Mono" />
      <path
         d="m -83.45975,-137.4975 -6.336,-6.336 -12.6,0 -6.336,6.336 0,30.096 6.336,6.336 11.736,0 0,8.855997 -1.08,1.296 -14.472,0 0,4.176 14.76,0 7.992,-6.408 0,-44.351997 m -7.2,-1.584 0,33.264 -1.44,1.296 -7.92,0 -1.512,-1.296 0,-33.264 1.512,-1.296 7.92,0 1.44,1.296"
         id="path3719"
         style="font-size:72px;font-variant:normal;font-stretch:normal;line-height:117.99999475%;fill:#000000;font-family:Steps-Mono;-inkscape-font-specification:Steps-Mono" />
      <path
         d="m -46.95575,-138.6495 -6.336,-5.184 -11.592,0 -6.336,5.184 0,32.328 6.192,5.184 16.92,0 0,-3.456 -14.76,0 -1.08,-1.296 0,-16.416 16.992,0 0,-16.344 m -7.272,12.96 -9.72,0 0,-13.392 1.08,-1.296 7.56,0 1.08,1.296 0,13.392"
         id="path3721"
         style="font-size:72px;font-variant:normal;font-stretch:normal;line-height:117.99999475%;fill:#000000;font-family:Steps-Mono;-inkscape-font-specification:Steps-Mono" />
      <path
         d="m -10.88375,-107.4015 0,-36.432 -7.2,0 0,37.944 -1.512,1.296 -7.92,0 -1.512,-1.296 0,-37.944 -7.2,0 0,36.432 6.336,6.264 12.672,0 6.336,-6.264"
         id="path3723"
         style="font-size:72px;font-variant:normal;font-stretch:normal;line-height:117.99999475%;fill:#000000;font-family:Steps-Mono;-inkscape-font-specification:Steps-Mono" />
      <path
         d="m 27.27625,-104.5935 -11.232,-17.784 0,-0.936 10.08,-16.488 0,-4.032 -6.48,0 0,4.032 -5.616,10.224 -2.16,0 -5.616,-10.224 0,-4.032 -7.92,0 0,4.032 10.08,16.488 0,0.936 -11.232,17.784 0,3.456 6.408,0 0,-3.312 6.768,-11.52 2.304,0 6.768,11.52 0,3.312 7.848,0 0,-3.456"
         id="path3725"
         style="font-size:72px;font-variant:normal;font-stretch:normal;line-height:117.99999475%;fill:#000000;font-family:Steps-Mono;-inkscape-font-specification:Steps-Mono" />
    </g>
    <g
       transform="matrix(1.0082253,0,0,1.0082253,-4378.0889,894.63139)"
       id="flowRoot4444"
       style="font-size:40px;font-style:normal;font-weight:normal;line-height:125%;letter-spacing:0px;word-spacing:0px;fill:#000000;fill-opacity:1;stroke:none;font-family:Sans">
      <path
         d="m -552.46775,-125.1855 -22.752,0 0,5.76 22.752,0 0,-5.76"
         id="path3650"
         style="font-size:72px;font-variant:normal;font-stretch:normal;line-height:117.99999475%;fill:#000000;font-family:Steps-Mono;-inkscape-font-specification:Steps-Mono" />
      <path
         d="m -517.11575,-160.9695 -9.216,0 0,9.936 9.216,0 0,-9.936 m -0.792,17.136 -20.592,0 0,3.456 12.312,0 1.08,1.08 0,45.647997 -1.152,1.296 -7.848,0 -1.152,-1.296 0,-4.896 -6.696,0 0,4.68 6.048,4.968 11.448,0 6.552,-4.968 0,-49.967997"
         id="path3652"
         style="font-size:72px;font-variant:normal;font-stretch:normal;line-height:117.99999475%;fill:#000000;font-family:Steps-Mono;-inkscape-font-specification:Steps-Mono" />
      <path
         d="m -479.24375,-107.4015 0,-30.168 -6.192,-6.264 -12.816,0 -6.192,6.264 0,30.168 6.192,6.264 12.816,0 6.192,-6.264 m -8.712,-32.976 1.44,1.296 0,33.192 -1.44,1.296 -7.776,0 -1.44,-1.296 0,-33.192 1.44,-1.296 7.776,0"
         id="path3654"
         style="font-size:72px;font-variant:normal;font-stretch:normal;line-height:117.99999475%;fill:#000000;font-family:Steps-Mono;-inkscape-font-specification:Steps-Mono" />
      <path
         d="m -442.88375,-107.4015 0,-36.432 -7.2,0 0,37.944 -1.512,1.296 -7.92,0 -1.512,-1.296 0,-37.944 -7.2,0 0,36.432 6.336,6.264 12.672,0 6.336,-6.264"
         id="path3656"
         style="font-size:72px;font-variant:normal;font-stretch:normal;line-height:117.99999475%;fill:#000000;font-family:Steps-Mono;-inkscape-font-specification:Steps-Mono" />
      <path
         d="m -410.69975,-139.4415 0,7.992 7.272,0 0,-7.488 -9.432,-5.976 -7.848,5.976 0,-4.968 -12.888,0 0,3.456 5.688,0 0,35.856 -6.408,0 0,3.456 25.056,0 0,-3.456 -11.376,0 0,-30.888 7.416,-5.544 2.52,1.584"
         id="path3658"
         style="font-size:72px;font-variant:normal;font-stretch:normal;line-height:117.99999475%;fill:#000000;font-family:Steps-Mono;-inkscape-font-specification:Steps-Mono" />
      <path
         d="m -396.22775,-143.8335 0,42.696 7.272,0 0,-39.24 8.712,0 1.512,1.296 0,37.944 7.272,0 0,-36.432 -6.768,-6.264 -18,0"
         id="path3660"
         style="font-size:72px;font-variant:normal;font-stretch:normal;line-height:117.99999475%;fill:#000000;font-family:Steps-Mono;-inkscape-font-specification:Steps-Mono" />
      <path
         d="m -335.45975,-138.1455 -5.472,-5.688 -13.896,0 0,3.456 11.016,0 1.152,1.296 0,15.192 -13.68,0 -5.616,10.08 0,2.592 5.616,10.08 20.88,0 0,-37.008 m -7.2,33.552 -10.368,0 -2.16,-7.128 0,-1.584 2.16,-7.128 10.368,0 0,15.84"
         id="path3662"
         style="font-size:72px;font-variant:normal;font-stretch:normal;line-height:117.99999475%;fill:#000000;font-family:Steps-Mono;-inkscape-font-specification:Steps-Mono" />
      <path
         d="m -297.08375,-104.5935 -9.648,0 -1.152,-1.296 0,-52.848 -16.704,0 0,3.456 8.352,0 1.152,1.296 0,48.096 -1.152,1.296 -9.648,0 0,3.456 28.8,0 0,-3.456"
         id="path3664"
         style="font-size:72px;font-variant:normal;font-stretch:normal;line-height:117.99999475%;fill:#000000;font-family:Steps-Mono;-inkscape-font-specification:Steps-Mono" />
      <path
         d="m -234.37175,-109.1295 -9.216,4.68 -1.44,-1.296 0,-33.408 1.44,-1.296 9.216,0 0,31.32 m 7.272,-52.488 -7.272,0 0,17.712 -11.736,0 -6.192,6.336 0,31.536 7.488,5.904 10.44,-5.688 0,4.68 7.272,0 0,-60.48"
         id="path3666"
         style="font-size:72px;font-variant:normal;font-stretch:normal;line-height:117.99999475%;fill:#000000;font-family:Steps-Mono;-inkscape-font-specification:Steps-Mono" />
      <path
         d="m -190.95575,-138.6495 -6.336,-5.184 -11.592,0 -6.336,5.184 0,32.328 6.192,5.184 16.92,0 0,-3.456 -14.76,0 -1.08,-1.296 0,-16.416 16.992,0 0,-16.344 m -7.272,12.96 -9.72,0 0,-13.392 1.08,-1.296 7.56,0 1.08,1.296 0,13.392"
         id="path3668"
         style="font-size:72px;font-variant:normal;font-stretch:normal;line-height:117.99999475%;fill:#000000;font-family:Steps-Mono;-inkscape-font-specification:Steps-Mono" />
      <path
         d="m -132.34775,-104.5935 -1.152,-1.296 0,-33.192 1.152,-1.296 12.24,0 0,-3.456 -13.896,0 -6.768,6.264 0,30.168 6.768,6.264 13.896,0 0,-3.456 -12.24,0"
         id="path3670"
         style="font-size:72px;font-variant:normal;font-stretch:normal;line-height:117.99999475%;fill:#000000;font-family:Steps-Mono;-inkscape-font-specification:Steps-Mono" />
      <path
         d="m -83.38775,-137.5695 -6.336,-6.336 -11.376,0 0,-17.712 -7.2,0 0,60.48 7.2,0 0,-39.312 9.072,0 1.44,1.296 0,38.016 7.2,0 0,-36.432"
         id="path3672"
         style="font-size:72px;font-variant:normal;font-stretch:normal;line-height:117.99999475%;fill:#000000;font-family:Steps-Mono;-inkscape-font-specification:Steps-Mono" />
      <path
         d="m -47.45975,-138.1455 -5.472,-5.688 -13.896,0 0,3.456 11.016,0 1.152,1.296 0,15.192 -13.68,0 -5.616,10.08 0,2.592 5.616,10.08 20.88,0 0,-37.008 m -7.2,33.552 -10.368,0 -2.16,-7.128 0,-1.584 2.16,-7.128 10.368,0 0,15.84"
         id="path3674"
         style="font-size:72px;font-variant:normal;font-stretch:normal;line-height:117.99999475%;fill:#000000;font-family:Steps-Mono;-inkscape-font-specification:Steps-Mono" />
      <path
         d="m -36.22775,-143.8335 0,42.696 7.272,0 0,-39.24 8.712,0 1.512,1.296 0,37.944 7.272,0 0,-36.432 -6.768,-6.264 -18,0"
         id="path3676"
         style="font-size:72px;font-variant:normal;font-stretch:normal;line-height:117.99999475%;fill:#000000;font-family:Steps-Mono;-inkscape-font-specification:Steps-Mono" />
      <path
         d="m 24.54025,-137.4975 -6.336,-6.336 -12.6,0 -6.336,6.336 0,30.096 6.336,6.336 11.736,0 0,8.855997 -1.08,1.296 -14.472,0 0,4.176 14.76,0 7.992,-6.408 0,-44.351997 m -7.2,-1.584 0,33.264 -1.44,1.296 -7.92,0 -1.512,-1.296 0,-33.264 1.512,-1.296 7.92,0 1.44,1.296"
         id="path3678"
         style="font-size:72px;font-variant:normal;font-stretch:normal;line-height:117.99999475%;fill:#000000;font-family:Steps-Mono;-inkscape-font-specification:Steps-Mono" />
      <path
         d="m 61.04425,-138.6495 -6.336,-5.184 -11.592,0 -6.336,5.184 0,32.328 6.192,5.184 16.92,0 0,-3.456 -14.76,0 -1.08,-1.296 0,-16.416 16.992,0 0,-16.344 m -7.272,12.96 -9.72,0 0,-13.392 1.08,-1.296 7.56,0 1.08,1.296 0,13.392"
         id="path3680"
         style="font-size:72px;font-variant:normal;font-stretch:normal;line-height:117.99999475%;fill:#000000;font-family:Steps-Mono;-inkscape-font-specification:Steps-Mono" />
      <path
         d="m 99.06025,-137.4975 -5.832,-6.336 -24.264,0 0,42.696 7.272,0 0,-39.24 3.744,0 1.152,1.08 0,38.16 5.472,0 0,-39.24 3.744,0 1.44,1.296 0,37.944 7.272,0 0,-36.36"
         id="path3682"
         style="font-size:72px;font-variant:normal;font-stretch:normal;line-height:117.99999475%;fill:#000000;font-family:Steps-Mono;-inkscape-font-specification:Steps-Mono" />
      <path
         d="m 133.04425,-138.6495 -6.336,-5.184 -11.592,0 -6.336,5.184 0,32.328 6.192,5.184 16.92,0 0,-3.456 -14.76,0 -1.08,-1.296 0,-16.416 16.992,0 0,-16.344 m -7.272,12.96 -9.72,0 0,-13.392 1.08,-1.296 7.56,0 1.08,1.296 0,13.392"
         id="path3684"
         style="font-size:72px;font-variant:normal;font-stretch:normal;line-height:117.99999475%;fill:#000000;font-family:Steps-Mono;-inkscape-font-specification:Steps-Mono" />
      <path
         d="m 143.77225,-143.8335 0,42.696 7.272,0 0,-39.24 8.712,0 1.512,1.296 0,37.944 7.272,0 0,-36.432 -6.768,-6.264 -18,0"
         id="path3686"
         style="font-size:72px;font-variant:normal;font-stretch:normal;line-height:117.99999475%;fill:#000000;font-family:Steps-Mono;-inkscape-font-specification:Steps-Mono" />
      <path
         d="m 190.93225,-140.3775 13.176,0 0,-3.456 -13.176,0 0,-11.16 -7.272,0 0,11.16 -7.776,0 0,3.456 7.776,0 0,32.976 6.408,6.264 14.04,0 0,-3.456 -11.664,0 -1.512,-1.296 0,-34.488"
         id="path3688"
         style="font-size:72px;font-variant:normal;font-stretch:normal;line-height:117.99999475%;fill:#000000;font-family:Steps-Mono;-inkscape-font-specification:Steps-Mono" />
      <path
         d="m 233.98825,-139.0815 0,5.904 7.272,0 0,-4.392 -6.264,-6.264 -11.376,0 -6.264,6.264 0,7.488 17.064,16.128 0,8.064 -1.512,1.296 -8.136,0 -1.512,-1.296 0,-5.832 -7.272,0 0,4.32 6.264,6.264 13.176,0 6.264,-6.264 0,-8.856 -1.152,-1.296 -15.912,-15.624 0,-5.904 1.512,-1.296 6.336,0 1.512,1.296"
         id="path3690"
         style="font-size:72px;font-variant:normal;font-stretch:normal;line-height:117.99999475%;fill:#000000;font-family:Steps-Mono;-inkscape-font-specification:Steps-Mono" />
      <path
         d="m 275.53225,-125.1855 -22.752,0 0,5.76 22.752,0 0,-5.76"
         id="path3692"
         style="font-size:72px;font-variant:normal;font-stretch:normal;line-height:117.99999475%;fill:#000000;font-family:Steps-Mono;-inkscape-font-specification:Steps-Mono" />
    </g>
    <flowRoot
       transform="matrix(1.0519707,0,0,1.0519707,-4315.1299,1202.9225)"
       id="flowRoot4454"
       xml:space="preserve"
       style="font-size:40px;font-style:normal;font-weight:normal;line-height:125%;letter-spacing:0px;word-spacing:0px;fill:#000000;fill-opacity:1;stroke:none;font-family:Sans"><flowRegion
         id="flowRegion4456"><rect
           width="854.79785"
           height="127.5084"
           x="-581.84784"
           y="-171.9427"
           id="rect4458"
           style="font-size:40px;fill:#000000" /></flowRegion><flowPara
         id="flowPara4460"
         style="font-size:72px;font-style:normal;font-variant:normal;font-weight:normal;font-stretch:normal;line-height:117.99999475%;fill:#000000;font-family:Steps-Mono;-inkscape-font-specification:Steps-Mono" /></flowRoot>    <g
       transform="matrix(0.961176,0,0,0.961176,-4401.161,980.05933)"
       id="flowRoot4462"
       style="font-size:40px;font-style:normal;font-weight:normal;line-height:125%;letter-spacing:0px;word-spacing:0px;fill:#000000;fill-opacity:1;stroke:none;font-family:Sans">
      <path
         d="m -546.77975,-104.5935 -14.112,-53.424 -6.408,0 -14.112,53.424 0,3.456 3.888,0 0,-3.456 4.752,-16.776 16.632,0 4.752,16.776 0,3.456 4.608,0 0,-3.456 m -10.224,-21.096 -14.904,0 6.984,-27.432 0.936,0 6.984,27.432"
         id="path3603"
         style="font-stretch:condensed;text-align:start;line-height:117.99999475%;writing-mode:lr-tb;text-anchor:start;font-family:Steps-Mono;-inkscape-font-specification:Steps-Mono Condensed" />
      <path
         d="m -515.67575,-137.5695 -5.832,-6.336 -18.504,0 0,57.095997 3.816,0 0,-14.327997 15.408,0 5.112,-6.336 0,-30.096 m -3.816,1.296 0,27.504 -3.672,4.176 -11.52,0 -1.512,-1.296 0,-34.56 13.032,0 3.672,4.176"
         id="path3605"
         style="font-stretch:condensed;text-align:start;line-height:117.99999475%;writing-mode:lr-tb;text-anchor:start;font-family:Steps-Mono;-inkscape-font-specification:Steps-Mono Condensed" />
      <path
         d="m -479.67575,-137.5695 -5.832,-6.336 -18.504,0 0,57.095997 3.816,0 0,-14.327997 15.408,0 5.112,-6.336 0,-30.096 m -3.816,1.296 0,27.504 -3.672,4.176 -11.52,0 -1.512,-1.296 0,-34.56 13.032,0 3.672,4.176"
         id="path3607"
         style="font-stretch:condensed;text-align:start;line-height:117.99999475%;writing-mode:lr-tb;text-anchor:start;font-family:Steps-Mono;-inkscape-font-specification:Steps-Mono Condensed" />
      <path
         d="m -441.08375,-104.5935 -11.088,0 -1.152,-1.296 0,-52.848 -15.264,0 0,3.456 9.792,0 1.152,1.296 0,48.096 -1.152,1.296 -11.088,0 0,3.456 28.8,0 0,-3.456"
         id="path3609"
         style="font-stretch:condensed;text-align:start;line-height:117.99999475%;writing-mode:lr-tb;text-anchor:start;font-family:Steps-Mono;-inkscape-font-specification:Steps-Mono Condensed" />
      <path
         d="m -424.66775,-149.8815 9.432,0 0,-9.936 -9.432,0 0,9.936 m 19.224,48.744 0,-3.456 -11.088,0 -1.152,-1.296 0,-38.016 -15.264,0 0,3.456 9.792,0 1.152,1.296 0,33.264 -1.152,1.296 -11.088,0 0,3.456 28.8,0"
         id="path3611"
         style="font-stretch:condensed;text-align:start;line-height:117.99999475%;writing-mode:lr-tb;text-anchor:start;font-family:Steps-Mono;-inkscape-font-specification:Steps-Mono Condensed" />
      <path
         d="m -371.67575,-143.9775 -18.504,0 -5.832,6.336 0,30.816 5.832,5.616 14.688,0 0,14.327997 3.816,0 0,-57.095997 m -3.816,3.456 0,34.56 -1.512,1.296 -10.8,0 -4.392,-4.176 0,-27.504 4.392,-4.176 12.312,0"
         id="path3613"
         style="font-stretch:condensed;text-align:start;line-height:117.99999475%;writing-mode:lr-tb;text-anchor:start;font-family:Steps-Mono;-inkscape-font-specification:Steps-Mono Condensed" />
      <path
         d="m -335.38775,-107.4015 0,-36.432 -3.816,0 0,35.064 -4.392,4.176 -7.92,0 -4.392,-4.176 0,-35.064 -3.816,0 0,36.432 5.832,6.264 12.672,0 5.832,-6.264"
         id="path3615"
         style="font-stretch:condensed;text-align:start;line-height:117.99999475%;writing-mode:lr-tb;text-anchor:start;font-family:Steps-Mono;-inkscape-font-specification:Steps-Mono Condensed" />
      <path
         d="m -298.95575,-137.2095 -6.336,-6.624 -11.592,0 -6.336,6.624 0,29.448 6.192,6.624 16.92,0 0,-3.456 -15.48,0 -3.96,-4.176 0,-13.536 20.592,0 0,-14.904 m -3.672,11.52 -16.92,0 0,-10.512 4.68,-4.176 8.28,0 3.96,4.176 0,10.512"
         id="path3617"
         style="font-stretch:condensed;text-align:start;line-height:117.99999475%;writing-mode:lr-tb;text-anchor:start;font-family:Steps-Mono;-inkscape-font-specification:Steps-Mono Condensed" />
      <path
         d="m -279.94775,-140.3775 16.056,0 0,-3.456 -16.056,0 0,-11.16 -4.392,0 0,11.16 -7.776,0 0,3.456 7.776,0 0,32.976 6.408,6.264 14.04,0 0,-3.456 -11.664,0 -4.392,-4.176 0,-31.608"
         id="path3619"
         style="font-stretch:condensed;text-align:start;line-height:117.99999475%;writing-mode:lr-tb;text-anchor:start;font-family:Steps-Mono;-inkscape-font-specification:Steps-Mono Condensed" />
      <path
         d="m -243.94775,-140.3775 16.056,0 0,-3.456 -16.056,0 0,-11.16 -4.392,0 0,11.16 -7.776,0 0,3.456 7.776,0 0,32.976 6.408,6.264 14.04,0 0,-3.456 -11.664,0 -4.392,-4.176 0,-31.608"
         id="path3621"
         style="font-stretch:condensed;text-align:start;line-height:117.99999475%;writing-mode:lr-tb;text-anchor:start;font-family:Steps-Mono;-inkscape-font-specification:Steps-Mono Condensed" />
      <path
         d="m -190.95575,-137.2095 -6.336,-6.624 -11.592,0 -6.336,6.624 0,29.448 6.192,6.624 16.92,0 0,-3.456 -15.48,0 -3.96,-4.176 0,-13.536 20.592,0 0,-14.904 m -3.672,11.52 -16.92,0 0,-10.512 4.68,-4.176 8.28,0 3.96,4.176 0,10.512"
         id="path3623"
         style="font-stretch:condensed;text-align:start;line-height:117.99999475%;writing-mode:lr-tb;text-anchor:start;font-family:Steps-Mono;-inkscape-font-specification:Steps-Mono Condensed" />
      <path
         d="m -116.79575,-104.8815 -9.648,0 -1.152,-1.296 0,-44.568 -19.368,6.912 0,3.744 11.808,-3.744 0,37.656 -1.152,1.296 -9.648,0 0,3.744 29.16,0 0,-3.744"
         id="path3625"
         style="font-size:72px;font-variant:normal;font-stretch:normal;line-height:117.99999475%;fill:#000000;font-family:Steps-Mono;-inkscape-font-specification:Steps-Mono" />
      <path
         d="m -83.17175,-143.7615 -6.192,-6.264 -12.816,0 -6.192,6.264 0,36.36 6.192,6.264 12.816,0 6.192,-6.264 0,-36.36 m -17.928,23.472 0,-24.984 1.44,-1.296 7.776,0 1.44,1.296 0,9.792 -10.656,15.192 m 10.656,14.4 -1.44,1.296 -7.776,0 -1.44,-1.296 0,-9.792 10.656,-15.192 0,24.984"
         id="path3627"
         style="font-size:72px;font-variant:normal;font-stretch:normal;line-height:117.99999475%;fill:#000000;font-family:Steps-Mono;-inkscape-font-specification:Steps-Mono" />
      <path
         d="m -47.031125,-143.7615 -6.192,-6.264 -12.816,0 -6.192,6.264 0,36.36 6.192,6.264 12.816,0 6.192,-6.264 0,-36.36 m -17.928,23.472 0,-24.984 1.44,-1.296 7.776,0 1.44,1.296 0,9.792 -10.656,15.192 m 10.656,14.4 -1.44,1.296 -7.776,0 -1.44,-1.296 0,-9.792 10.656,-15.192 0,24.984"
         id="path3629"
         style="font-size:72px;font-variant:normal;font-stretch:normal;line-height:117.99999475%;fill:#000000;font-family:Steps-Mono;-inkscape-font-specification:Steps-Mono" />
      <path
         d="m -26.8025,-146.9295 -3.168,-3.168 -6.48,0 -3.168,3.168 0,18.576 3.168,3.168 6.48,0 3.168,-3.168 0,-18.576 m 17.136,-3.168 -5.4,0 -8.424,21.672 2.952,0 10.872,-21.672 m -26.136,14.832 0,-12.384 0.72,-0.72 3.816,0 0.792,0.72 0,4.968 -5.328,7.416 m 5.328,7.632 -0.792,0.648 -3.816,0 -0.72,-0.648 0,-4.968 5.328,-7.416 0,12.384 m 21.456,4.752 -3.168,-3.168 -6.48,0 -3.168,3.168 0,18.576 3.168,3.168 6.48,0 3.168,-3.168 0,-18.576 m -9,11.664 0,-12.384 0.72,-0.72 3.672,0 0.792,0.72 0,4.968 -5.184,7.416 m -20.88,10.08 5.4,0 8.424,-21.672 -2.952,0 -10.872,21.672 m 26.064,-2.448 -0.792,0.648 -3.672,0 -0.72,-0.648 0,-4.968 5.184,-7.416 0,12.384"
         id="path3631"
         style="font-size:72px;font-variant:normal;font-stretch:normal;line-height:117.99999475%;fill:#000000;font-family:Steps-Mono;-inkscape-font-specification:Steps-Mono" />
      <path
         d="m 47.9335,-104.5935 -4.752,-4.176 0,-27.432 4.752,-4.176 12.24,0 0,-3.456 -13.896,0 -6.768,6.264 0,30.168 6.768,6.264 13.896,0 0,-3.456 -12.24,0"
         id="path3633"
         style="font-stretch:condensed;text-align:start;line-height:117.99999475%;writing-mode:lr-tb;text-anchor:start;font-family:Steps-Mono;-inkscape-font-specification:Steps-Mono Condensed" />
      <path
         d="m 96.4615,-138.2895 -5.904,-5.616 -14.256,0 0,-17.712 -3.888,0 0,60.48 3.888,0 0,-39.312 12.672,0 3.6,3.456 0,35.856 3.888,0 0,-37.152"
         id="path3635"
         style="font-stretch:condensed;text-align:start;line-height:117.99999475%;writing-mode:lr-tb;text-anchor:start;font-family:Steps-Mono;-inkscape-font-specification:Steps-Mono Condensed" />
      <path
         d="m 133.0375,-107.4015 0,-30.168 -6.192,-6.264 -12.816,0 -6.192,6.264 0,30.168 6.192,6.264 12.816,0 6.192,-6.264 m -7.992,-32.976 4.32,4.176 0,27.432 -4.32,4.176 -9.216,0 -4.32,-4.176 0,-27.432 4.32,-4.176 9.216,0"
         id="path3637"
         style="font-stretch:condensed;text-align:start;line-height:117.99999475%;writing-mode:lr-tb;text-anchor:start;font-family:Steps-Mono;-inkscape-font-specification:Steps-Mono Condensed" />
      <path
         d="m 168.8935,-107.4015 0,-36.432 -3.816,0 0,35.064 -4.392,4.176 -7.92,0 -4.392,-4.176 0,-35.064 -3.816,0 0,36.432 5.832,6.264 12.672,0 5.832,-6.264"
         id="path3639"
         style="font-stretch:condensed;text-align:start;line-height:117.99999475%;writing-mode:lr-tb;text-anchor:start;font-family:Steps-Mono;-inkscape-font-specification:Steps-Mono Condensed" />
      <path
         d="m 205.3255,-137.2095 -6.336,-6.624 -11.592,0 -6.336,6.624 0,29.448 6.192,6.624 16.92,0 0,-3.456 -15.48,0 -3.96,-4.176 0,-13.536 20.592,0 0,-14.904 m -3.672,11.52 -16.92,0 0,-10.512 4.68,-4.176 8.28,0 3.96,4.176 0,10.512"
         id="path3641"
         style="font-stretch:condensed;text-align:start;line-height:117.99999475%;writing-mode:lr-tb;text-anchor:start;font-family:Steps-Mono;-inkscape-font-specification:Steps-Mono Condensed" />
      <path
         d="m 224.3335,-140.3775 16.056,0 0,-3.456 -16.056,0 0,-11.16 -4.392,0 0,11.16 -7.776,0 0,3.456 7.776,0 0,32.976 6.408,6.264 14.04,0 0,-3.456 -11.664,0 -4.392,-4.176 0,-31.608"
         id="path3643"
         style="font-stretch:condensed;text-align:start;line-height:117.99999475%;writing-mode:lr-tb;text-anchor:start;font-family:Steps-Mono;-inkscape-font-specification:Steps-Mono Condensed" />
      <path
         d="m 260.3335,-140.3775 16.056,0 0,-3.456 -16.056,0 0,-11.16 -4.392,0 0,11.16 -7.776,0 0,3.456 7.776,0 0,32.976 6.408,6.264 14.04,0 0,-3.456 -11.664,0 -4.392,-4.176 0,-31.608"
         id="path3645"
         style="font-stretch:condensed;text-align:start;line-height:117.99999475%;writing-mode:lr-tb;text-anchor:start;font-family:Steps-Mono;-inkscape-font-specification:Steps-Mono Condensed" />
      <path
         d="m 313.3255,-137.2095 -6.336,-6.624 -11.592,0 -6.336,6.624 0,29.448 6.192,6.624 16.92,0 0,-3.456 -15.48,0 -3.96,-4.176 0,-13.536 20.592,0 0,-14.904 m -3.672,11.52 -16.92,0 0,-10.512 4.68,-4.176 8.28,0 3.96,4.176 0,10.512"
         id="path3647"
         style="font-stretch:condensed;text-align:start;line-height:117.99999475%;writing-mode:lr-tb;text-anchor:start;font-family:Steps-Mono;-inkscape-font-specification:Steps-Mono Condensed" />
    </g>
    <g
       transform="matrix(0.56999089,0,0,0.56999089,-4630.1806,1008.605)"
       id="flowRoot4470"
       style="font-size:40px;font-style:normal;font-weight:normal;line-height:125%;letter-spacing:0px;word-spacing:0px;fill:#000000;fill-opacity:1;stroke:none;font-family:Sans">
      <path
         d="m -551.31575,-107.4015 0,-50.616 -22.248,0 0,3.6 16.632,0 1.44,1.584 0,43.92 -4.32,4.176 -12.6,0 -4.32,-4.176 0,-5.544 -4.176,0 0,7.056 5.976,6.264 17.64,0 5.976,-6.264"
         id="path3532"
         style="font-size:72px;font-variant:normal;font-stretch:condensed;text-align:start;line-height:117.99999475%;writing-mode:lr-tb;text-anchor:start;fill:#000000;font-family:Steps-Mono;-inkscape-font-specification:Steps-Mono Condensed" />
      <path
         d="m -514.95575,-137.2095 -6.336,-6.624 -11.592,0 -6.336,6.624 0,29.448 6.192,6.624 16.92,0 0,-3.456 -15.48,0 -3.96,-4.176 0,-13.536 20.592,0 0,-14.904 m -3.672,11.52 -16.92,0 0,-10.512 4.68,-4.176 8.28,0 3.96,4.176 0,10.512"
         id="path3534"
         style="font-size:72px;font-variant:normal;font-stretch:condensed;text-align:start;line-height:117.99999475%;writing-mode:lr-tb;text-anchor:start;fill:#000000;font-family:Steps-Mono;-inkscape-font-specification:Steps-Mono Condensed" />
      <path
         d="m -468.22775,-143.8335 0,42.696 4.392,0 0,-39.24 11.592,0 4.392,4.176 0,35.064 4.392,0 0,-36.432 -6.768,-6.264 -18,0"
         id="path3536"
         style="font-size:72px;font-variant:normal;font-stretch:condensed;text-align:start;line-height:117.99999475%;writing-mode:lr-tb;text-anchor:start;fill:#000000;font-family:Steps-Mono;-inkscape-font-specification:Steps-Mono Condensed" />
      <path
         d="m -408.03575,-136.7055 -6.912,-7.128 -12.456,0 0,3.456 11.016,0 4.032,4.176 0,12.312 -17.28,0 -5.616,10.08 0,2.592 5.616,10.08 21.6,0 0,-35.568 m -4.32,32.112 -14.688,0 -3.6,-7.128 0,-1.584 3.6,-7.128 14.688,0 0,15.84"
         id="path3538"
         style="font-size:72px;font-variant:normal;font-stretch:condensed;text-align:start;line-height:117.99999475%;writing-mode:lr-tb;text-anchor:start;fill:#000000;font-family:Steps-Mono;-inkscape-font-specification:Steps-Mono Condensed" />
      <path
         d="m -368.93975,-139.8015 0,-4.032 -4.32,0 0,4.032 -10.224,35.208 -0.792,0 -10.008,-35.208 0,-4.032 -4.464,0 0.144,4.032 11.52,38.664 6.192,0 11.952,-38.664"
         id="path3540"
         style="font-size:72px;font-variant:normal;font-stretch:condensed;text-align:start;line-height:117.99999475%;writing-mode:lr-tb;text-anchor:start;fill:#000000;font-family:Steps-Mono;-inkscape-font-specification:Steps-Mono Condensed" />
      <path
         d="m -352.66775,-149.8815 9.432,0 0,-9.936 -9.432,0 0,9.936 m 19.224,48.744 0,-3.456 -11.088,0 -1.152,-1.296 0,-38.016 -15.264,0 0,3.456 9.792,0 1.152,1.296 0,33.264 -1.152,1.296 -11.088,0 0,3.456 28.8,0"
         id="path3542"
         style="font-size:72px;font-variant:normal;font-stretch:condensed;text-align:start;line-height:117.99999475%;writing-mode:lr-tb;text-anchor:start;fill:#000000;font-family:Steps-Mono;-inkscape-font-specification:Steps-Mono Condensed" />
      <path
         d="m -299.89175,-137.4975 -6.624,-6.336 -11.16,0 -6.552,6.336 0,30.096 6.552,6.336 13.896,0 0,6.695997 -2.52,3.456 -15.912,0 0,4.176 17.64,0 4.68,-6.408 0,-44.351997 m -3.888,1.296 0,30.384 -1.44,1.296 -10.8,0 -4.392,-4.176 0,-27.504 4.392,-4.176 7.92,0 4.32,4.176"
         id="path3544"
         style="font-size:72px;font-variant:normal;font-stretch:condensed;text-align:start;line-height:117.99999475%;writing-mode:lr-tb;text-anchor:start;fill:#000000;font-family:Steps-Mono;-inkscape-font-specification:Steps-Mono Condensed" />
      <path
         d="m -263.38775,-107.4015 0,-36.432 -3.816,0 0,35.064 -4.392,4.176 -7.92,0 -4.392,-4.176 0,-35.064 -3.816,0 0,36.432 5.832,6.264 12.672,0 5.832,-6.264"
         id="path3546"
         style="font-size:72px;font-variant:normal;font-stretch:condensed;text-align:start;line-height:117.99999475%;writing-mode:lr-tb;text-anchor:start;fill:#000000;font-family:Steps-Mono;-inkscape-font-specification:Steps-Mono Condensed" />
      <path
         d="m -226.95575,-137.2095 -6.336,-6.624 -11.592,0 -6.336,6.624 0,29.448 6.192,6.624 16.92,0 0,-3.456 -15.48,0 -3.96,-4.176 0,-13.536 20.592,0 0,-14.904 m -3.672,11.52 -16.92,0 0,-10.512 4.68,-4.176 8.28,0 3.96,4.176 0,10.512"
         id="path3548"
         style="font-size:72px;font-variant:normal;font-stretch:condensed;text-align:start;line-height:117.99999475%;writing-mode:lr-tb;text-anchor:start;fill:#000000;font-family:Steps-Mono;-inkscape-font-specification:Steps-Mono Condensed" />
      <path
         d="m -155.67575,-137.5695 -5.832,-6.336 -18.504,0 0,57.095997 3.816,0 0,-14.327997 15.408,0 5.112,-6.336 0,-30.096 m -3.816,1.296 0,27.504 -3.672,4.176 -11.52,0 -1.512,-1.296 0,-34.56 13.032,0 3.672,4.176"
         id="path3550"
         style="font-size:72px;font-variant:normal;font-stretch:condensed;text-align:start;line-height:117.99999475%;writing-mode:lr-tb;text-anchor:start;fill:#000000;font-family:Steps-Mono;-inkscape-font-specification:Steps-Mono Condensed" />
      <path
         d="m -126.73175,-161.0415 -6.12,11.232 1.728,1.656 1.512,0 8.928,-9 -4.176,-3.888 -1.872,0 m 7.776,23.832 -6.336,-6.624 -11.592,0 -6.336,6.624 0,29.448 6.192,6.624 16.92,0 0,-3.456 -15.48,0 -3.96,-4.176 0,-13.536 20.592,0 0,-14.904 m -3.672,11.52 -16.92,0 0,-10.512 4.68,-4.176 8.28,0 3.96,4.176 0,10.512"
         id="path3552"
         style="font-size:72px;font-variant:normal;font-stretch:condensed;text-align:start;line-height:117.99999475%;writing-mode:lr-tb;text-anchor:start;fill:#000000;font-family:Steps-Mono;-inkscape-font-specification:Steps-Mono Condensed" />
      <path
         d="m -83.67575,-137.5695 -5.832,-6.336 -18.504,0 0,57.095997 3.816,0 0,-14.327997 15.408,0 5.112,-6.336 0,-30.096 m -3.816,1.296 0,27.504 -3.672,4.176 -11.52,0 -1.512,-1.296 0,-34.56 13.032,0 3.672,4.176"
         id="path3554"
         style="font-size:72px;font-variant:normal;font-stretch:condensed;text-align:start;line-height:117.99999475%;writing-mode:lr-tb;text-anchor:start;fill:#000000;font-family:Steps-Mono;-inkscape-font-specification:Steps-Mono Condensed" />
      <path
         d="m -47.24375,-107.4015 0,-30.168 -6.192,-6.264 -12.816,0 -6.192,6.264 0,30.168 6.192,6.264 12.816,0 6.192,-6.264 m -7.992,-32.976 4.32,4.176 0,27.432 -4.32,4.176 -9.216,0 -4.32,-4.176 0,-27.432 4.32,-4.176 9.216,0"
         id="path3556"
         style="font-size:72px;font-variant:normal;font-stretch:condensed;text-align:start;line-height:117.99999475%;writing-mode:lr-tb;text-anchor:start;fill:#000000;font-family:Steps-Mono;-inkscape-font-specification:Steps-Mono Condensed" />
      <path
         d="m -11.38775,-107.4015 0,-36.432 -3.816,0 0,35.064 -4.392,4.176 -7.92,0 -4.392,-4.176 0,-35.064 -3.816,0 0,36.432 5.832,6.264 12.672,0 5.832,-6.264"
         id="path3558"
         style="font-size:72px;font-variant:normal;font-stretch:condensed;text-align:start;line-height:117.99999475%;writing-mode:lr-tb;text-anchor:start;fill:#000000;font-family:Steps-Mono;-inkscape-font-specification:Steps-Mono Condensed" />
      <path
         d="m 24.90025,-104.5935 -21.168,0 20.736,-35.784 -0.072,0 0,-3.456 -24.192,0 0,3.456 19.296,0 -21.096,35.784 0,3.456 26.496,0 0,-3.456"
         id="path3560"
         style="font-size:72px;font-variant:normal;font-stretch:condensed;text-align:start;line-height:117.99999475%;writing-mode:lr-tb;text-anchor:start;fill:#000000;font-family:Steps-Mono;-inkscape-font-specification:Steps-Mono Condensed" />
      <path
         d="m 61.04425,-137.2095 -6.336,-6.624 -11.592,0 -6.336,6.624 0,29.448 6.192,6.624 16.92,0 0,-3.456 -15.48,0 -3.96,-4.176 0,-13.536 20.592,0 0,-14.904 m -3.672,11.52 -16.92,0 0,-10.512 4.68,-4.176 8.28,0 3.96,4.176 0,10.512"
         id="path3562"
         style="font-size:72px;font-variant:normal;font-stretch:condensed;text-align:start;line-height:117.99999475%;writing-mode:lr-tb;text-anchor:start;fill:#000000;font-family:Steps-Mono;-inkscape-font-specification:Steps-Mono Condensed" />
      <path
         d="m 129.58825,-136.2015 0,3.024 3.672,0 0,-4.392 -6.264,-6.264 -11.376,0 -6.264,6.264 0,8.712 20.664,13.104 0,6.984 -3.672,4.176 -10.296,0 -4.392,-4.176 0,-2.952 -3.672,0 0,4.32 6.264,6.264 13.176,0 6.264,-6.264 0,-9.864 -1.152,-0.792 -19.512,-12.6 0,-5.544 3.672,-4.176 9.216,0 3.672,4.176"
         id="path3564"
         style="font-size:72px;font-variant:normal;font-stretch:condensed;text-align:start;line-height:117.99999475%;writing-mode:lr-tb;text-anchor:start;fill:#000000;font-family:Steps-Mono;-inkscape-font-specification:Steps-Mono Condensed" />
      <path
         d="m 168.61225,-107.4015 0,-36.432 -3.816,0 0,35.064 -4.392,4.176 -7.92,0 -4.392,-4.176 0,-35.064 -3.816,0 0,36.432 5.832,6.264 12.672,0 5.832,-6.264"
         id="path3566"
         style="font-size:72px;font-variant:normal;font-stretch:condensed;text-align:start;line-height:117.99999475%;writing-mode:lr-tb;text-anchor:start;fill:#000000;font-family:Steps-Mono;-inkscape-font-specification:Steps-Mono Condensed" />
      <path
         d="m 204.18025,-138.0015 0,6.552 4.392,0 0,-7.488 -9.432,-5.976 -10.728,5.976 0,-4.968 -10.008,0 0,3.456 5.688,0 0,35.856 -6.408,0 0,3.456 25.056,0 0,-3.456 -14.256,0 0,-30.888 10.296,-5.544 5.4,3.024"
         id="path3568"
         style="font-size:72px;font-variant:normal;font-stretch:condensed;text-align:start;line-height:117.99999475%;writing-mode:lr-tb;text-anchor:start;fill:#000000;font-family:Steps-Mono;-inkscape-font-specification:Steps-Mono Condensed" />
      <path
         d="m 273.22825,-143.8335 -24.264,0 0,42.696 4.392,0 0,-39.24 6.336,0 2.592,2.52 0,36.72 4.32,0 0,-39.24 3.744,0 4.32,4.176 0,35.064 4.392,0 0,-36.36 -5.832,-6.336"
         id="path3570"
         style="font-size:72px;font-variant:normal;font-stretch:condensed;text-align:start;line-height:117.99999475%;writing-mode:lr-tb;text-anchor:start;fill:#000000;font-family:Steps-Mono;-inkscape-font-specification:Steps-Mono Condensed" />
      <path
         d="m 312.75625,-107.4015 0,-30.168 -6.192,-6.264 -12.816,0 -6.192,6.264 0,30.168 6.192,6.264 12.816,0 6.192,-6.264 m -7.992,-32.976 4.32,4.176 0,27.432 -4.32,4.176 -9.216,0 -4.32,-4.176 0,-27.432 4.32,-4.176 9.216,0"
         id="path3572"
         style="font-size:72px;font-variant:normal;font-stretch:condensed;text-align:start;line-height:117.99999475%;writing-mode:lr-tb;text-anchor:start;fill:#000000;font-family:Steps-Mono;-inkscape-font-specification:Steps-Mono Condensed" />
      <path
         d="m 323.77225,-143.8335 0,42.696 4.392,0 0,-39.24 11.592,0 4.392,4.176 0,35.064 4.392,0 0,-36.432 -6.768,-6.264 -18,0"
         id="path3574"
         style="font-size:72px;font-variant:normal;font-stretch:condensed;text-align:start;line-height:117.99999475%;writing-mode:lr-tb;text-anchor:start;fill:#000000;font-family:Steps-Mono;-inkscape-font-specification:Steps-Mono Condensed" />
      <path
         d="m 419.96425,-136.7055 -6.912,-7.128 -12.456,0 0,3.456 11.016,0 4.032,4.176 0,12.312 -17.28,0 -5.616,10.08 0,2.592 5.616,10.08 21.6,0 0,-35.568 m -4.32,32.112 -14.688,0 -3.6,-7.128 0,-1.584 3.6,-7.128 14.688,0 0,15.84"
         id="path3576"
         style="font-size:72px;font-variant:normal;font-stretch:condensed;text-align:start;line-height:117.99999475%;writing-mode:lr-tb;text-anchor:start;fill:#000000;font-family:Steps-Mono;-inkscape-font-specification:Steps-Mono Condensed" />
      <path
         d="m 431.77225,-143.8335 0,42.696 4.392,0 0,-39.24 11.592,0 4.392,4.176 0,35.064 4.392,0 0,-36.432 -6.768,-6.264 -18,0"
         id="path3578"
         style="font-size:72px;font-variant:normal;font-stretch:condensed;text-align:start;line-height:117.99999475%;writing-mode:lr-tb;text-anchor:start;fill:#000000;font-family:Steps-Mono;-inkscape-font-specification:Steps-Mono Condensed" />
      <path
         d="m 467.77225,-143.8335 0,42.696 4.392,0 0,-39.24 11.592,0 4.392,4.176 0,35.064 4.392,0 0,-36.432 -6.768,-6.264 -18,0"
         id="path3580"
         style="font-size:72px;font-variant:normal;font-stretch:condensed;text-align:start;line-height:117.99999475%;writing-mode:lr-tb;text-anchor:start;fill:#000000;font-family:Steps-Mono;-inkscape-font-specification:Steps-Mono Condensed" />
      <path
         d="m 529.04425,-137.2095 -6.336,-6.624 -11.592,0 -6.336,6.624 0,29.448 6.192,6.624 16.92,0 0,-3.456 -15.48,0 -3.96,-4.176 0,-13.536 20.592,0 0,-14.904 m -3.672,11.52 -16.92,0 0,-10.512 4.68,-4.176 8.28,0 3.96,4.176 0,10.512"
         id="path3582"
         style="font-size:72px;font-variant:normal;font-stretch:condensed;text-align:start;line-height:117.99999475%;writing-mode:lr-tb;text-anchor:start;fill:#000000;font-family:Steps-Mono;-inkscape-font-specification:Steps-Mono Condensed" />
      <path
         d="m 563.96425,-136.7055 -6.912,-7.128 -12.456,0 0,3.456 11.016,0 4.032,4.176 0,12.312 -17.28,0 -5.616,10.08 0,2.592 5.616,10.08 21.6,0 0,-35.568 m -4.32,32.112 -14.688,0 -3.6,-7.128 0,-1.584 3.6,-7.128 14.688,0 0,15.84"
         id="path3584"
         style="font-size:72px;font-variant:normal;font-stretch:condensed;text-align:start;line-height:117.99999475%;writing-mode:lr-tb;text-anchor:start;fill:#000000;font-family:Steps-Mono;-inkscape-font-specification:Steps-Mono Condensed" />
      <path
         d="m 600.61225,-107.4015 0,-36.432 -3.816,0 0,35.064 -4.392,4.176 -7.92,0 -4.392,-4.176 0,-35.064 -3.816,0 0,36.432 5.832,6.264 12.672,0 5.832,-6.264"
         id="path3586"
         style="font-size:72px;font-variant:normal;font-stretch:condensed;text-align:start;line-height:117.99999475%;writing-mode:lr-tb;text-anchor:start;fill:#000000;font-family:Steps-Mono;-inkscape-font-specification:Steps-Mono Condensed" />
      <path
         d="m 672.90025,-161.6175 -4.392,0 0,17.712 -14.616,0 -6.192,6.336 0,28.656 7.488,8.784 13.32,-5.688 0,4.68 4.392,0 0,-60.48 m -4.392,52.488 -12.096,4.68 -4.464,-4.896 0,-26.928 4.464,-4.176 12.096,0 0,31.32"
         id="path3588"
         style="font-size:72px;font-variant:normal;font-stretch:condensed;text-align:start;line-height:117.99999475%;writing-mode:lr-tb;text-anchor:start;fill:#000000;font-family:Steps-Mono;-inkscape-font-specification:Steps-Mono Condensed" />
      <path
         d="m 709.04425,-137.2095 -6.336,-6.624 -11.592,0 -6.336,6.624 0,29.448 6.192,6.624 16.92,0 0,-3.456 -15.48,0 -3.96,-4.176 0,-13.536 20.592,0 0,-14.904 m -3.672,11.52 -16.92,0 0,-10.512 4.68,-4.176 8.28,0 3.96,4.176 0,10.512"
         id="path3590"
         style="font-size:72px;font-variant:normal;font-stretch:condensed;text-align:start;line-height:117.99999475%;writing-mode:lr-tb;text-anchor:start;fill:#000000;font-family:Steps-Mono;-inkscape-font-specification:Steps-Mono Condensed" />
      <path
         d="m 777.58825,-136.2015 0,3.024 3.672,0 0,-4.392 -6.264,-6.264 -11.376,0 -6.264,6.264 0,8.712 20.664,13.104 0,6.984 -3.672,4.176 -10.296,0 -4.392,-4.176 0,-2.952 -3.672,0 0,4.32 6.264,6.264 13.176,0 6.264,-6.264 0,-9.864 -1.152,-0.792 -19.512,-12.6 0,-5.544 3.672,-4.176 9.216,0 3.672,4.176"
         id="path3592"
         style="font-size:72px;font-variant:normal;font-stretch:condensed;text-align:start;line-height:117.99999475%;writing-mode:lr-tb;text-anchor:start;fill:#000000;font-family:Steps-Mono;-inkscape-font-specification:Steps-Mono Condensed" />
      <path
         d="m 799.33225,-149.8815 9.432,0 0,-9.936 -9.432,0 0,9.936 m 19.224,48.744 0,-3.456 -11.088,0 -1.152,-1.296 0,-38.016 -15.264,0 0,3.456 9.792,0 1.152,1.296 0,33.264 -1.152,1.296 -11.088,0 0,3.456 28.8,0"
         id="path3594"
         style="font-size:72px;font-variant:normal;font-stretch:condensed;text-align:start;line-height:117.99999475%;writing-mode:lr-tb;text-anchor:start;fill:#000000;font-family:Steps-Mono;-inkscape-font-specification:Steps-Mono Condensed" />
      <path
         d="m 836.05225,-140.3775 16.056,0 0,-3.456 -16.056,0 0,-11.16 -4.392,0 0,11.16 -7.776,0 0,3.456 7.776,0 0,32.976 6.408,6.264 14.04,0 0,-3.456 -11.664,0 -4.392,-4.176 0,-31.608"
         id="path3596"
         style="font-size:72px;font-variant:normal;font-stretch:condensed;text-align:start;line-height:117.99999475%;writing-mode:lr-tb;text-anchor:start;fill:#000000;font-family:Steps-Mono;-inkscape-font-specification:Steps-Mono Condensed" />
      <path
         d="m 889.04425,-137.2095 -6.336,-6.624 -11.592,0 -6.336,6.624 0,29.448 6.192,6.624 16.92,0 0,-3.456 -15.48,0 -3.96,-4.176 0,-13.536 20.592,0 0,-14.904 m -3.672,11.52 -16.92,0 0,-10.512 4.68,-4.176 8.28,0 3.96,4.176 0,10.512"
         id="path3598"
         style="font-size:72px;font-variant:normal;font-stretch:condensed;text-align:start;line-height:117.99999475%;writing-mode:lr-tb;text-anchor:start;fill:#000000;font-family:Steps-Mono;-inkscape-font-specification:Steps-Mono Condensed" />
      <path
         d="m 921.58825,-136.2015 0,3.024 3.672,0 0,-4.392 -6.264,-6.264 -11.376,0 -6.264,6.264 0,8.712 20.664,13.104 0,6.984 -3.672,4.176 -10.296,0 -4.392,-4.176 0,-2.952 -3.672,0 0,4.32 6.264,6.264 13.176,0 6.264,-6.264 0,-9.864 -1.152,-0.792 -19.512,-12.6 0,-5.544 3.672,-4.176 9.216,0 3.672,4.176"
         id="path3600"
         style="font-size:72px;font-variant:normal;font-stretch:condensed;text-align:start;line-height:117.99999475%;writing-mode:lr-tb;text-anchor:start;fill:#000000;font-family:Steps-Mono;-inkscape-font-specification:Steps-Mono Condensed" />
    </g>
    <flowRoot
       id="flowRoot4478"
       xml:space="preserve"
       style="font-size:18px;font-style:normal;font-weight:normal;line-height:125%;letter-spacing:0px;word-spacing:0px;fill:#000000;fill-opacity:1;stroke:none;font-family:Sans"><flowRegion
         id="flowRegion4480"><rect
           width="1070"
           height="107.14286"
           x="-1992.8572"
           y="919.60309"
           id="rect4482" /></flowRegion><flowPara
         id="flowPara4484" /></flowRoot>    <g
       transform="matrix(0.80000149,0,0,0.80000149,-4494.9545,1106.517)"
       id="flowRoot4486"
       style="font-size:40px;font-style:normal;font-weight:normal;line-height:125%;letter-spacing:0px;word-spacing:0px;fill:#000000;fill-opacity:1;stroke:none;font-family:Sans">
      <path
         d="m -548.79575,-104.8815 -9.648,0 -1.152,-1.296 0,-44.568 -19.368,6.912 0,3.744 11.808,-3.744 0,37.656 -1.152,1.296 -9.648,0 0,3.744 29.16,0 0,-3.744"
         id="path3477"
         style="font-size:72px;font-variant:normal;font-stretch:normal;line-height:117.99999475%;fill:#000000;font-family:Steps-Mono;-inkscape-font-specification:Steps-Mono" />
      <path
         d="m -522.65975,-109.9215 -1.08,-1.08 -8.208,0 -1.08,1.08 0,7.704 1.08,1.08 6.12,0 c -0.576,3.743993 -2.304,7.631997 -6.48,7.631997 l 0,2.88 c 6.91199,0 9,-6.552005 9.504,-11.447997 l 0.144,-0.144 0,-7.704"
         id="path3479"
         style="font-size:72px;font-variant:normal;font-stretch:normal;line-height:117.99999475%;fill:#000000;font-family:Steps-Mono;-inkscape-font-specification:Steps-Mono" />
      <path
         d="m -477.58775,-107.2575 -21.6,0 20.88,-28.872 0,-7.632 -6.192,-6.264 -13.968,0 -6.192,6.264 0,5.328 7.272,0 0,-6.84 1.44,-1.296 8.928,0 1.44,1.296 0,10.296 -19.44,27.72 0,6.12 27.432,0 0,-6.12"
         id="path3481"
         style="font-size:72px;font-variant:normal;font-stretch:normal;line-height:117.99999475%;fill:#000000;font-family:Steps-Mono;-inkscape-font-specification:Steps-Mono" />
      <path
         d="m -450.65975,-109.9215 -1.08,-1.08 -8.208,0 -1.08,1.08 0,7.704 1.08,1.08 6.12,0 c -0.576,3.743993 -2.304,7.631997 -6.48,7.631997 l 0,2.88 c 6.91199,0 9,-6.552005 9.504,-11.447997 l 0.144,-0.144 0,-7.704"
         id="path3483"
         style="font-size:72px;font-variant:normal;font-stretch:normal;line-height:117.99999475%;fill:#000000;font-family:Steps-Mono;-inkscape-font-specification:Steps-Mono" />
      <path
         d="m -407.24375,-131.1615 0,-12.6 -6.192,-6.264 -12.816,0 -6.192,6.264 0,4.032 7.272,0 0,-5.544 1.44,-1.296 7.776,0 1.44,1.296 0,15.624 -1.44,1.296 -11.16,0 0,3.456 11.16,0 1.44,1.296 0,17.712 -1.44,1.296 -7.776,0 -1.44,-1.296 0,-6.264 -7.272,0 0,4.752 6.192,6.264 12.816,0 6.192,-6.264 0,-14.688 -4.464,-4.536 4.464,-4.536"
         id="path3485"
         style="font-size:72px;font-variant:normal;font-stretch:normal;line-height:117.99999475%;fill:#000000;font-family:Steps-Mono;-inkscape-font-specification:Steps-Mono" />
      <path
         d="m -368.36375,-109.4175 -7.128,0 0,8.28 7.128,0 0,-8.28 m -11.88,0 -7.2,0 0,8.28 7.2,0 0,-8.28 m -12.096,0 -7.128,0 0,8.28 7.128,0 0,-8.28"
         id="path3487"
         style="font-size:72px;font-variant:normal;font-stretch:normal;line-height:117.99999475%;fill:#000000;font-family:Steps-Mono;-inkscape-font-specification:Steps-Mono" />
      <path
         d="m -296.57975,-139.8015 0,-4.032 -7.56,0 0,4.032 -6.624,35.208 -1.512,0 -7.128,-35.208 0,-4.032 -7.704,0 0.144,4.032 8.64,38.664 12.672,0 9.072,-38.664"
         id="path3489"
         style="font-size:72px;font-variant:normal;font-stretch:normal;line-height:117.99999475%;fill:#000000;font-family:Steps-Mono;-inkscape-font-specification:Steps-Mono" />
      <path
         d="m -280.66775,-149.8815 9.432,0 0,-9.936 -9.432,0 0,9.936 m 19.224,48.744 0,-3.456 -9.648,0 -1.152,-1.296 0,-38.016 -16.704,0 0,3.456 8.352,0 1.152,1.296 0,33.264 -1.152,1.296 -9.648,0 0,3.456 28.8,0"
         id="path3491"
         style="font-size:72px;font-variant:normal;font-stretch:normal;line-height:117.99999475%;fill:#000000;font-family:Steps-Mono;-inkscape-font-specification:Steps-Mono" />
      <path
         d="m -234.37175,-109.1295 -9.216,4.68 -1.44,-1.296 0,-33.408 1.44,-1.296 9.216,0 0,31.32 m 7.272,-52.488 -7.272,0 0,17.712 -11.736,0 -6.192,6.336 0,31.536 7.488,5.904 10.44,-5.688 0,4.68 7.272,0 0,-60.48"
         id="path3493"
         style="font-size:72px;font-variant:normal;font-stretch:normal;line-height:117.99999475%;fill:#000000;font-family:Steps-Mono;-inkscape-font-specification:Steps-Mono" />
      <path
         d="m -191.24375,-107.4015 0,-30.168 -6.192,-6.264 -12.816,0 -6.192,6.264 0,30.168 6.192,6.264 12.816,0 6.192,-6.264 m -8.712,-32.976 1.44,1.296 0,33.192 -1.44,1.296 -7.776,0 -1.44,-1.296 0,-33.192 1.44,-1.296 7.776,0"
         id="path3495"
         style="font-size:72px;font-variant:normal;font-stretch:normal;line-height:117.99999475%;fill:#000000;font-family:Steps-Mono;-inkscape-font-specification:Steps-Mono" />
      <path
         d="m -180.22775,-143.8335 0,42.696 7.272,0 0,-39.24 8.712,0 1.512,1.296 0,37.944 7.272,0 0,-36.432 -6.768,-6.264 -18,0"
         id="path3497"
         style="font-size:72px;font-variant:normal;font-stretch:normal;line-height:117.99999475%;fill:#000000;font-family:Steps-Mono;-inkscape-font-specification:Steps-Mono" />
      <path
         d="m -126.01175,-139.0815 0,5.904 7.272,0 0,-4.392 -6.264,-6.264 -11.376,0 -6.264,6.264 0,7.488 17.064,16.128 0,8.064 -1.512,1.296 -8.136,0 -1.512,-1.296 0,-5.832 -7.272,0 0,4.32 6.264,6.264 13.176,0 6.264,-6.264 0,-8.856 -1.152,-1.296 -15.912,-15.624 0,-5.904 1.512,-1.296 6.336,0 1.512,1.296"
         id="path3499"
         style="font-size:72px;font-variant:normal;font-stretch:normal;line-height:117.99999475%;fill:#000000;font-family:Steps-Mono;-inkscape-font-specification:Steps-Mono" />
      <path
         d="m -72.22775,-143.8335 0,42.696 7.272,0 0,-39.24 8.712,0 1.512,1.296 0,37.944 7.272,0 0,-36.432 -6.768,-6.264 -18,0"
         id="path3501"
         style="font-size:72px;font-variant:normal;font-stretch:normal;line-height:117.99999475%;fill:#000000;font-family:Steps-Mono;-inkscape-font-specification:Steps-Mono" />
      <path
         d="m -11.24375,-107.4015 0,-30.168 -6.192,-6.264 -12.816,0 -6.192,6.264 0,30.168 6.192,6.264 12.816,0 6.192,-6.264 m -8.712,-32.976 1.44,1.296 0,33.192 -1.44,1.296 -7.776,0 -1.44,-1.296 0,-33.192 1.44,-1.296 7.776,0"
         id="path3503"
         style="font-size:72px;font-variant:normal;font-stretch:normal;line-height:117.99999475%;fill:#000000;font-family:Steps-Mono;-inkscape-font-specification:Steps-Mono" />
      <path
         d="m 17.98825,-139.0815 0,5.904 7.272,0 0,-4.392 -6.264,-6.264 -11.376,0 -6.264,6.264 0,7.488 17.064,16.128 0,8.064 -1.512,1.296 -8.136,0 -1.512,-1.296 0,-5.832 -7.272,0 0,4.32 6.264,6.264 13.176,0 6.264,-6.264 0,-8.856 -1.152,-1.296 -15.912,-15.624 0,-5.904 1.512,-1.296 6.336,0 1.512,1.296"
         id="path3505"
         style="font-size:72px;font-variant:normal;font-stretch:normal;line-height:117.99999475%;fill:#000000;font-family:Steps-Mono;-inkscape-font-specification:Steps-Mono" />
      <path
         d="m 96.54025,-138.1455 -5.472,-5.688 -13.896,0 0,3.456 11.016,0 1.152,1.296 0,15.192 -13.68,0 -5.616,10.08 0,2.592 5.616,10.08 20.88,0 0,-37.008 m -7.2,33.552 -10.368,0 -2.16,-7.128 0,-1.584 2.16,-7.128 10.368,0 0,15.84"
         id="path3507"
         style="font-size:72px;font-variant:normal;font-stretch:normal;line-height:117.99999475%;fill:#000000;font-family:Steps-Mono;-inkscape-font-specification:Steps-Mono" />
      <path
         d="m 107.77225,-143.8335 0,42.696 7.272,0 0,-39.24 8.712,0 1.512,1.296 0,37.944 7.272,0 0,-36.432 -6.768,-6.264 -18,0"
         id="path3509"
         style="font-size:72px;font-variant:normal;font-stretch:normal;line-height:117.99999475%;fill:#000000;font-family:Steps-Mono;-inkscape-font-specification:Steps-Mono" />
      <path
         d="m 154.93225,-140.3775 13.176,0 0,-3.456 -13.176,0 0,-11.16 -7.272,0 0,11.16 -7.776,0 0,3.456 7.776,0 0,32.976 6.408,6.264 14.04,0 0,-3.456 -11.664,0 -1.512,-1.296 0,-34.488"
         id="path3511"
         style="font-size:72px;font-variant:normal;font-stretch:normal;line-height:117.99999475%;fill:#000000;font-family:Steps-Mono;-inkscape-font-specification:Steps-Mono" />
      <path
         d="m 191.36425,-150.5295 0.504,0.504 2.664,0 6.696,-11.088 -1.296,-1.08 -4.176,0 -4.392,11.664 m 13.68,11.88 -6.336,-5.184 -11.592,0 -6.336,5.184 0,32.328 6.192,5.184 16.92,0 0,-3.456 -14.76,0 -1.08,-1.296 0,-16.416 16.992,0 0,-16.344 m -7.272,12.96 -9.72,0 0,-13.392 1.08,-1.296 7.56,0 1.08,1.296 0,13.392"
         id="path3513"
         style="font-size:72px;font-variant:normal;font-stretch:normal;line-height:117.99999475%;fill:#000000;font-family:Steps-Mono;-inkscape-font-specification:Steps-Mono" />
      <path
         d="m 243.06025,-137.4975 -5.832,-6.336 -24.264,0 0,42.696 7.272,0 0,-39.24 3.744,0 1.152,1.08 0,38.16 5.472,0 0,-39.24 3.744,0 1.44,1.296 0,37.944 7.272,0 0,-36.36"
         id="path3515"
         style="font-size:72px;font-variant:normal;font-stretch:normal;line-height:117.99999475%;fill:#000000;font-family:Steps-Mono;-inkscape-font-specification:Steps-Mono" />
      <path
         d="m 263.36425,-150.5295 0.504,0.504 2.664,0 6.696,-11.088 -1.296,-1.08 -4.176,0 -4.392,11.664 m 13.68,11.88 -6.336,-5.184 -11.592,0 -6.336,5.184 0,32.328 6.192,5.184 16.92,0 0,-3.456 -14.76,0 -1.08,-1.296 0,-16.416 16.992,0 0,-16.344 m -7.272,12.96 -9.72,0 0,-13.392 1.08,-1.296 7.56,0 1.08,1.296 0,13.392"
         id="path3517"
         style="font-size:72px;font-variant:normal;font-stretch:normal;line-height:117.99999475%;fill:#000000;font-family:Steps-Mono;-inkscape-font-specification:Steps-Mono" />
      <path
         d="m 315.06025,-137.4975 -5.832,-6.336 -24.264,0 0,42.696 7.272,0 0,-39.24 3.744,0 1.152,1.08 0,38.16 5.472,0 0,-39.24 3.744,0 1.44,1.296 0,37.944 7.272,0 0,-36.36"
         id="path3519"
         style="font-size:72px;font-variant:normal;font-stretch:normal;line-height:117.99999475%;fill:#000000;font-family:Steps-Mono;-inkscape-font-specification:Steps-Mono" />
      <path
         d="m 348.75625,-107.4015 0,-30.168 -6.192,-6.264 -12.816,0 -6.192,6.264 0,30.168 6.192,6.264 12.816,0 6.192,-6.264 m -8.712,-32.976 1.44,1.296 0,33.192 -1.44,1.296 -7.776,0 -1.44,-1.296 0,-33.192 1.44,-1.296 7.776,0"
         id="path3521"
         style="font-size:72px;font-variant:normal;font-stretch:normal;line-height:117.99999475%;fill:#000000;font-family:Steps-Mono;-inkscape-font-specification:Steps-Mono" />
      <path
         d="m 367.33225,-149.8815 9.432,0 0,-9.936 -9.432,0 0,9.936 m 19.224,48.744 0,-3.456 -9.648,0 -1.152,-1.296 0,-38.016 -16.704,0 0,3.456 8.352,0 1.152,1.296 0,33.264 -1.152,1.296 -9.648,0 0,3.456 28.8,0"
         id="path3523"
         style="font-size:72px;font-variant:normal;font-stretch:normal;line-height:117.99999475%;fill:#000000;font-family:Steps-Mono;-inkscape-font-specification:Steps-Mono" />
      <path
         d="m 417.30025,-139.4415 0,7.992 7.272,0 0,-7.488 -9.432,-5.976 -7.848,5.976 0,-4.968 -12.888,0 0,3.456 5.688,0 0,35.856 -6.408,0 0,3.456 25.056,0 0,-3.456 -11.376,0 0,-30.888 7.416,-5.544 2.52,1.584"
         id="path3525"
         style="font-size:72px;font-variant:normal;font-stretch:normal;line-height:117.99999475%;fill:#000000;font-family:Steps-Mono;-inkscape-font-specification:Steps-Mono" />
      <path
         d="m 457.04425,-138.6495 -6.336,-5.184 -11.592,0 -6.336,5.184 0,32.328 6.192,5.184 16.92,0 0,-3.456 -14.76,0 -1.08,-1.296 0,-16.416 16.992,0 0,-16.344 m -7.272,12.96 -9.72,0 0,-13.392 1.08,-1.296 7.56,0 1.08,1.296 0,13.392"
         id="path3527"
         style="font-size:72px;font-variant:normal;font-stretch:normal;line-height:117.99999475%;fill:#000000;font-family:Steps-Mono;-inkscape-font-specification:Steps-Mono" />
      <path
         d="m 485.98825,-139.0815 0,5.904 7.272,0 0,-4.392 -6.264,-6.264 -11.376,0 -6.264,6.264 0,7.488 17.064,16.128 0,8.064 -1.512,1.296 -8.136,0 -1.512,-1.296 0,-5.832 -7.272,0 0,4.32 6.264,6.264 13.176,0 6.264,-6.264 0,-8.856 -1.152,-1.296 -15.912,-15.624 0,-5.904 1.512,-1.296 6.336,0 1.512,1.296"
         id="path3529"
         style="font-size:72px;font-variant:normal;font-stretch:normal;line-height:117.99999475%;fill:#000000;font-family:Steps-Mono;-inkscape-font-specification:Steps-Mono" />
    </g>
    <g
       transform="matrix(1.3138304,0,0,1.3138304,-4199.4258,1271.6283)"
       id="flowRoot4502"
       style="font-size:40px;font-style:normal;font-variant:normal;font-weight:normal;font-stretch:condensed;text-align:start;line-height:125%;letter-spacing:0px;word-spacing:0px;writing-mode:lr-tb;text-anchor:start;fill:#000000;fill-opacity:1;stroke:none;font-family:Steps-Mono;-inkscape-font-specification:Steps-Mono Condensed">
      <path
         d="m -575.08375,-159.87083 8.72,0 0,-2 -9.72,0 -3.72,3.88 0,23.84 3.72,3.88 9.72,0 0,-2 -8.72,0 -2.4,-2.32 0,-22.96 2.4,-2.32"
         id="path3422"
         style="line-height:125%;fill:#000000;font-family:Steps-Mono;-inkscape-font-specification:Steps-Mono Condensed" />
      <path
         d="m -544.84375,-133.75083 0,-16.76 -3.44,-3.48 -7.12,0 -3.44,3.48 0,16.76 3.44,3.48 7.12,0 3.44,-3.48 m -4.44,-18.32 2.4,2.32 0,15.24 -2.4,2.32 -5.12,0 -2.4,-2.32 0,-15.24 2.4,-2.32 5.12,0"
         id="path3424"
         style="line-height:125%;fill:#000000;font-family:Steps-Mono;-inkscape-font-specification:Steps-Mono Condensed" />
      <path
         d="m -524.76375,-163.87083 -2.44,0 0,9.84 -8.12,0 -3.44,3.52 0,15.92 4.16,4.88 7.4,-3.16 0,2.6 2.44,0 0,-33.6 m -2.44,29.16 -6.72,2.6 -2.48,-2.72 0,-14.96 2.48,-2.32 6.72,0 0,17.4"
         id="path3426"
         style="line-height:125%;fill:#000000;font-family:Steps-Mono;-inkscape-font-specification:Steps-Mono Condensed" />
      <path
         d="m -504.68375,-150.31083 -3.52,-3.68 -6.44,0 -3.52,3.68 0,16.36 3.44,3.68 9.4,0 0,-1.92 -8.6,0 -2.2,-2.32 0,-7.52 11.44,0 0,-8.28 m -2.04,6.4 -9.4,0 0,-5.84 2.6,-2.32 4.6,0 2.2,2.32 0,5.84"
         id="path3428"
         style="line-height:125%;fill:#000000;font-family:Steps-Mono;-inkscape-font-specification:Steps-Mono Condensed" />
      <path
         d="m -474.12375,-163.55083 3.4,6.24 -0.96,0.92 -0.84,0 -4.96,-5 2.32,-2.16 1.04,0 m 8.84,13.52 -3.84,-3.96 -6.92,0 0,1.92 6.12,0 2.24,2.32 0,6.84 -9.6,0 -3.12,5.6 0,1.44 3.12,5.6 12,0 0,-19.76 m -2.4,17.84 -8.16,0 -2,-3.96 0,-0.88 2,-3.96 8.16,0 0,8.8"
         id="path3430"
         style="line-height:125%;fill:#000000;font-family:Steps-Mono;-inkscape-font-specification:Steps-Mono Condensed" />
      <path
         d="m -424.84375,-133.75083 0,-16.76 -3.44,-3.48 -7.12,0 -3.44,3.48 0,16.76 3.44,3.48 7.12,0 3.44,-3.48 m -4.44,-18.32 2.4,2.32 0,15.24 -2.4,2.32 -5.12,0 -2.4,-2.32 0,-15.24 2.4,-2.32 5.12,0"
         id="path3432"
         style="line-height:125%;fill:#000000;font-family:Steps-Mono;-inkscape-font-specification:Steps-Mono Condensed" />
      <path
         d="m -412.12375,-132.19083 -2.64,-2.32 0,-15.24 2.64,-2.32 6.8,0 0,-1.92 -7.72,0 -3.76,3.48 0,16.76 3.76,3.48 7.72,0 0,-1.92 -6.8,0"
         id="path3434"
         style="line-height:125%;fill:#000000;font-family:Steps-Mono;-inkscape-font-specification:Steps-Mono Condensed" />
      <path
         d="m -394.12375,-152.07083 8.92,0 0,-1.92 -8.92,0 0,-6.2 -2.44,0 0,6.2 -4.32,0 0,1.92 4.32,0 0,18.32 3.56,3.48 7.8,0 0,-1.92 -6.48,0 -2.44,-2.32 0,-17.56"
         id="path3436"
         style="line-height:125%;fill:#000000;font-family:Steps-Mono;-inkscape-font-specification:Steps-Mono Condensed" />
      <path
         d="m -364.68375,-150.31083 -3.52,-3.68 -6.44,0 -3.52,3.68 0,16.36 3.44,3.68 9.4,0 0,-1.92 -8.6,0 -2.2,-2.32 0,-7.52 11.44,0 0,-8.28 m -2.04,6.4 -9.4,0 0,-5.84 2.6,-2.32 4.6,0 2.2,2.32 0,5.84"
         id="path3438"
         style="line-height:125%;fill:#000000;font-family:Steps-Mono;-inkscape-font-specification:Steps-Mono Condensed" />
      <path
         d="m -354.12375,-152.07083 8.92,0 0,-1.92 -8.92,0 0,-6.2 -2.44,0 0,6.2 -4.32,0 0,1.92 4.32,0 0,18.32 3.56,3.48 7.8,0 0,-1.92 -6.48,0 -2.44,-2.32 0,-17.56"
         id="path3440"
         style="line-height:125%;fill:#000000;font-family:Steps-Mono;-inkscape-font-specification:Steps-Mono Condensed" />
      <path
         d="m -326.60375,-149.75083 0,1.68 2.04,0 0,-2.44 -3.48,-3.48 -6.32,0 -3.48,3.48 0,4.84 11.48,7.28 0,3.88 -2.04,2.32 -5.72,0 -2.44,-2.32 0,-1.64 -2.04,0 0,2.4 3.48,3.48 7.32,0 3.48,-3.48 0,-5.48 -0.64,-0.44 -10.84,-7 0,-3.08 2.04,-2.32 5.12,0 2.04,2.32"
         id="path3442"
         style="line-height:125%;fill:#000000;font-family:Steps-Mono;-inkscape-font-specification:Steps-Mono Condensed" />
      <path
         d="m -285.20375,-152.11083 0,-1.92 -8.4,0 0,-5.6 2.04,-2.32 5.68,0 0,-1.92 -6.72,0 -3.4,3.52 0,6.32 -4.88,0 0,1.92 4.88,0 0,21.84 2.4,0 0,-21.84 8.4,0"
         id="path3444"
         style="line-height:125%;fill:#000000;font-family:Steps-Mono;-inkscape-font-specification:Steps-Mono Condensed" />
      <path
         d="m -265.28375,-150.03083 -3.84,-3.96 -6.92,0 0,1.92 6.12,0 2.24,2.32 0,6.84 -9.6,0 -3.12,5.6 0,1.44 3.12,5.6 12,0 0,-19.76 m -2.4,17.84 -8.16,0 -2,-3.96 0,-0.88 2,-3.96 8.16,0 0,8.8"
         id="path3446"
         style="line-height:125%;fill:#000000;font-family:Steps-Mono;-inkscape-font-specification:Steps-Mono Condensed" />
      <path
         d="m -254.52375,-157.35083 5.24,0 0,-5.52 -5.24,0 0,5.52 m 10.68,27.08 0,-1.92 -6.16,0 -0.64,-0.72 0,-21.12 -8.48,0 0,1.92 5.44,0 0.64,0.72 0,18.48 -0.64,0.72 -6.16,0 0,1.92 16,0"
         id="path3448"
         style="line-height:125%;fill:#000000;font-family:Steps-Mono;-inkscape-font-specification:Steps-Mono Condensed" />
      <path
         d="m -234.12375,-152.07083 8.92,0 0,-1.92 -8.92,0 0,-6.2 -2.44,0 0,6.2 -4.32,0 0,1.92 4.32,0 0,18.32 3.56,3.48 7.8,0 0,-1.92 -6.48,0 -2.44,-2.32 0,-17.56"
         id="path3450"
         style="line-height:125%;fill:#000000;font-family:Steps-Mono;-inkscape-font-specification:Steps-Mono Condensed" />
      <path
         d="m -185.28375,-150.03083 -3.84,-3.96 -6.92,0 0,1.92 6.12,0 2.24,2.32 0,6.84 -9.6,0 -3.12,5.6 0,1.44 3.12,5.6 12,0 0,-19.76 m -2.4,17.84 -8.16,0 -2,-3.96 0,-0.88 2,-3.96 8.16,0 0,8.8"
         id="path3452"
         style="line-height:125%;fill:#000000;font-family:Steps-Mono;-inkscape-font-specification:Steps-Mono Condensed" />
      <path
         d="m -163.56375,-151.75083 0,-2.24 -2.4,0 0,2.24 -5.68,19.56 -0.44,0 -5.56,-19.56 0,-2.24 -2.48,0 0.08,2.24 6.4,21.48 3.44,0 6.64,-21.48"
         id="path3454"
         style="line-height:125%;fill:#000000;font-family:Steps-Mono;-inkscape-font-specification:Steps-Mono Condensed" />
      <path
         d="m -144.68375,-150.31083 -3.52,-3.68 -6.44,0 -3.52,3.68 0,16.36 3.44,3.68 9.4,0 0,-1.92 -8.6,0 -2.2,-2.32 0,-7.52 11.44,0 0,-8.28 m -2.04,6.4 -9.4,0 0,-5.84 2.6,-2.32 4.6,0 2.2,2.32 0,5.84"
         id="path3456"
         style="line-height:125%;fill:#000000;font-family:Steps-Mono;-inkscape-font-specification:Steps-Mono Condensed" />
      <path
         d="m -132.12375,-132.19083 -2.64,-2.32 0,-15.24 2.64,-2.32 6.8,0 0,-1.92 -7.72,0 -3.76,3.48 0,16.76 3.76,3.48 7.72,0 0,-1.92 -6.8,0"
         id="path3458"
         style="line-height:125%;fill:#000000;font-family:Steps-Mono;-inkscape-font-specification:Steps-Mono Condensed" />
      <path
         d="m -83.64375,-132.19083 -6.16,0 -0.64,-0.72 0,-29.36 -8.48,0 0,1.92 5.44,0 0.64,0.72 0,26.72 -0.64,0.72 -6.16,0 0,1.92 16,0 0,-1.92"
         id="path3460"
         style="line-height:125%;fill:#000000;font-family:Steps-Mono;-inkscape-font-specification:Steps-Mono Condensed" />
      <path
         d="m -64.68375,-150.31083 -3.52,-3.68 -6.44,0 -3.52,3.68 0,16.36 3.44,3.68 9.4,0 0,-1.92 -8.6,0 -2.2,-2.32 0,-7.52 11.44,0 0,-8.28 m -2.04,6.4 -9.4,0 0,-5.84 2.6,-2.32 4.6,0 2.2,2.32 0,5.84"
         id="path3462"
         style="line-height:125%;fill:#000000;font-family:Steps-Mono;-inkscape-font-specification:Steps-Mono Condensed" />
      <path
         d="m -46.60375,-149.75083 0,1.68 2.04,0 0,-2.44 -3.48,-3.48 -6.32,0 -3.48,3.48 0,4.84 11.48,7.28 0,3.88 -2.04,2.32 -5.72,0 -2.44,-2.32 0,-1.64 -2.04,0 0,2.4 3.48,3.48 7.32,0 3.48,-3.48 0,-5.48 -0.64,-0.44 -10.84,-7 0,-3.08 2.04,-2.32 5.12,0 2.04,2.32"
         id="path3464"
         style="line-height:125%;fill:#000000;font-family:Steps-Mono;-inkscape-font-specification:Steps-Mono Condensed" />
      <path
         d="m -5.08375,-150.51083 -3.24,-3.52 -10.28,0 0,31.72 2.12,0 0,-7.96 8.56,0 2.84,-3.52 0,-16.72 m -2.12,0.72 0,15.28 -2.04,2.32 -6.4,0 -0.84,-0.72 0,-19.2 7.24,0 2.04,2.32"
         id="path3466"
         style="line-height:125%;fill:#000000;font-family:Steps-Mono;-inkscape-font-specification:Steps-Mono Condensed" />
      <path
         d="m 5.47625,-157.35083 5.24,0 0,-5.52 -5.24,0 0,5.52 m 10.68,27.08 0,-1.92 -6.16,0 -0.64,-0.72 0,-21.12 -8.48,0 0,1.92 5.44,0 0.64,0.72 0,18.48 -0.64,0.72 -6.16,0 0,1.92 16,0"
         id="path3468"
         style="line-height:125%;fill:#000000;font-family:Steps-Mono;-inkscape-font-specification:Steps-Mono Condensed" />
      <path
         d="m 35.31625,-150.31083 -3.52,-3.68 -6.44,0 -3.52,3.68 0,16.36 3.44,3.68 9.4,0 0,-1.92 -8.6,0 -2.2,-2.32 0,-7.52 11.44,0 0,-8.28 m -2.04,6.4 -9.4,0 0,-5.84 2.6,-2.32 4.6,0 2.2,2.32 0,5.84"
         id="path3470"
         style="line-height:125%;fill:#000000;font-family:Steps-Mono;-inkscape-font-specification:Steps-Mono Condensed" />
      <path
         d="m 55.23625,-163.87083 -2.44,0 0,9.84 -8.12,0 -3.44,3.52 0,15.92 4.16,4.88 7.4,-3.16 0,2.6 2.44,0 0,-33.6 m -2.44,29.16 -6.72,2.6 -2.48,-2.72 0,-14.96 2.48,-2.32 6.72,0 0,17.4"
         id="path3472"
         style="line-height:125%;fill:#000000;font-family:Steps-Mono;-inkscape-font-specification:Steps-Mono Condensed" />
      <path
         d="m 73.39625,-149.75083 0,1.68 2.04,0 0,-2.44 -3.48,-3.48 -6.32,0 -3.48,3.48 0,4.84 11.48,7.28 0,3.88 -2.04,2.32 -5.72,0 -2.44,-2.32 0,-1.64 -2.04,0 0,2.4 3.48,3.48 7.32,0 3.48,-3.48 0,-5.48 -0.64,-0.44 -10.84,-7 0,-3.08 2.04,-2.32 5.12,0 2.04,2.32"
         id="path3474"
         style="line-height:125%;fill:#000000;font-family:Steps-Mono;-inkscape-font-specification:Steps-Mono Condensed" />
    </g>
    <flowRoot
       id="flowRoot4510"
       xml:space="preserve"
       style="font-size:18px;font-style:normal;font-weight:normal;line-height:125%;letter-spacing:0px;word-spacing:0px;fill:#000000;fill-opacity:1;stroke:none;font-family:Sans"><flowRegion
         id="flowRegion4512"><rect
           width="832.85712"
           height="132.85715"
           x="-2022.8572"
           y="902.46021"
           id="rect4514" /></flowRegion><flowPara
         id="flowPara4516" /></flowRoot>    <g
       transform="matrix(1.7342277,0,0,1.7342277,-3957.3185,687.75764)"
       id="flowRoot4518"
       style="font-size:40px;font-style:normal;font-weight:normal;line-height:125%;letter-spacing:0px;word-spacing:0px;fill:#000000;fill-opacity:1;stroke:none;font-family:Sans">
      <path
         d="m -549.58775,-107.4015 0,-44.352 -6.696,-6.264 -21.888,0 0,56.88 21.888,0 6.696,-6.264 m -9.216,-46.296 1.44,1.296 0,45.648 -1.44,1.296 -11.592,0 0,-48.24 11.592,0"
         id="path3395"
         style="font-size:72px;font-variant:normal;font-stretch:normal;line-height:117.99999475%;fill:#000000;font-family:Steps-Mono;-inkscape-font-specification:Steps-Mono" />
      <path
         d="m -514.95575,-138.6495 -6.336,-5.184 -11.592,0 -6.336,5.184 0,32.328 6.192,5.184 16.92,0 0,-3.456 -14.76,0 -1.08,-1.296 0,-16.416 16.992,0 0,-16.344 m -7.272,12.96 -9.72,0 0,-13.392 1.08,-1.296 7.56,0 1.08,1.296 0,13.392"
         id="path3397"
         style="font-size:72px;font-variant:normal;font-stretch:normal;line-height:117.99999475%;fill:#000000;font-family:Steps-Mono;-inkscape-font-specification:Steps-Mono" />
      <path
         d="m -486.01175,-139.0815 0,5.904 7.272,0 0,-4.392 -6.264,-6.264 -11.376,0 -6.264,6.264 0,7.488 17.064,16.128 0,8.064 -1.512,1.296 -8.136,0 -1.512,-1.296 0,-5.832 -7.272,0 0,4.32 6.264,6.264 13.176,0 6.264,-6.264 0,-8.856 -1.152,-1.296 -15.912,-15.624 0,-5.904 1.512,-1.296 6.336,0 1.512,1.296"
         id="path3399"
         style="font-size:72px;font-variant:normal;font-stretch:normal;line-height:117.99999475%;fill:#000000;font-family:Steps-Mono;-inkscape-font-specification:Steps-Mono" />
      <path
         d="m -407.89175,-140.4495 0,-3.456 -12.24,0 0,-12.96 1.512,-1.296 9.504,0 0,-3.456 -12.096,0 -6.12,6.336 0,11.376 -8.784,0 0,3.456 8.784,0 0,39.312 7.2,0 0,-39.312 12.24,0"
         id="path3401"
         style="font-size:72px;font-variant:normal;font-stretch:normal;line-height:117.99999475%;fill:#000000;font-family:Steps-Mono;-inkscape-font-specification:Steps-Mono" />
      <path
         d="m -374.69975,-139.4415 0,7.992 7.272,0 0,-7.488 -9.432,-5.976 -7.848,5.976 0,-4.968 -12.888,0 0,3.456 5.688,0 0,35.856 -6.408,0 0,3.456 25.056,0 0,-3.456 -11.376,0 0,-30.888 7.416,-5.544 2.52,1.584"
         id="path3403"
         style="font-size:72px;font-variant:normal;font-stretch:normal;line-height:117.99999475%;fill:#000000;font-family:Steps-Mono;-inkscape-font-specification:Steps-Mono" />
      <path
         d="m -352.66775,-149.8815 9.432,0 0,-9.936 -9.432,0 0,9.936 m 19.224,48.744 0,-3.456 -9.648,0 -1.152,-1.296 0,-38.016 -16.704,0 0,3.456 8.352,0 1.152,1.296 0,33.264 -1.152,1.296 -9.648,0 0,3.456 28.8,0"
         id="path3405"
         style="font-size:72px;font-variant:normal;font-stretch:normal;line-height:117.99999475%;fill:#000000;font-family:Steps-Mono;-inkscape-font-specification:Steps-Mono" />
      <path
         d="m -296.93975,-137.4975 -5.832,-6.336 -24.264,0 0,42.696 7.272,0 0,-39.24 3.744,0 1.152,1.08 0,38.16 5.472,0 0,-39.24 3.744,0 1.44,1.296 0,37.944 7.272,0 0,-36.36"
         id="path3407"
         style="font-size:72px;font-variant:normal;font-stretch:normal;line-height:117.99999475%;fill:#000000;font-family:Steps-Mono;-inkscape-font-specification:Steps-Mono" />
      <path
         d="m -263.24375,-107.4015 0,-30.168 -6.192,-6.264 -12.816,0 -6.192,6.264 0,30.168 6.192,6.264 12.816,0 6.192,-6.264 m -8.712,-32.976 1.44,1.296 0,33.192 -1.44,1.296 -7.776,0 -1.44,-1.296 0,-33.192 1.44,-1.296 7.776,0"
         id="path3409"
         style="font-size:72px;font-variant:normal;font-stretch:normal;line-height:117.99999475%;fill:#000000;font-family:Steps-Mono;-inkscape-font-specification:Steps-Mono" />
      <path
         d="m -226.88375,-107.4015 0,-36.432 -7.2,0 0,37.944 -1.512,1.296 -7.92,0 -1.512,-1.296 0,-37.944 -7.2,0 0,36.432 6.336,6.264 12.672,0 6.336,-6.264"
         id="path3411"
         style="font-size:72px;font-variant:normal;font-stretch:normal;line-height:117.99999475%;fill:#000000;font-family:Steps-Mono;-inkscape-font-specification:Steps-Mono" />
      <path
         d="m -198.01175,-139.0815 0,5.904 7.272,0 0,-4.392 -6.264,-6.264 -11.376,0 -6.264,6.264 0,7.488 17.064,16.128 0,8.064 -1.512,1.296 -8.136,0 -1.512,-1.296 0,-5.832 -7.272,0 0,4.32 6.264,6.264 13.176,0 6.264,-6.264 0,-8.856 -1.152,-1.296 -15.912,-15.624 0,-5.904 1.512,-1.296 6.336,0 1.512,1.296"
         id="path3413"
         style="font-size:72px;font-variant:normal;font-stretch:normal;line-height:117.99999475%;fill:#000000;font-family:Steps-Mono;-inkscape-font-specification:Steps-Mono" />
      <path
         d="m -162.01175,-139.0815 0,5.904 7.272,0 0,-4.392 -6.264,-6.264 -11.376,0 -6.264,6.264 0,7.488 17.064,16.128 0,8.064 -1.512,1.296 -8.136,0 -1.512,-1.296 0,-5.832 -7.272,0 0,4.32 6.264,6.264 13.176,0 6.264,-6.264 0,-8.856 -1.152,-1.296 -15.912,-15.624 0,-5.904 1.512,-1.296 6.336,0 1.512,1.296"
         id="path3415"
         style="font-size:72px;font-variant:normal;font-stretch:normal;line-height:117.99999475%;fill:#000000;font-family:Steps-Mono;-inkscape-font-specification:Steps-Mono" />
      <path
         d="m -118.95575,-138.6495 -6.336,-5.184 -11.592,0 -6.336,5.184 0,32.328 6.192,5.184 16.92,0 0,-3.456 -14.76,0 -1.08,-1.296 0,-16.416 16.992,0 0,-16.344 m -7.272,12.96 -9.72,0 0,-13.392 1.08,-1.296 7.56,0 1.08,1.296 0,13.392"
         id="path3417"
         style="font-size:72px;font-variant:normal;font-stretch:normal;line-height:117.99999475%;fill:#000000;font-family:Steps-Mono;-inkscape-font-specification:Steps-Mono" />
      <path
         d="m -90.01175,-139.0815 0,5.904 7.272,0 0,-4.392 -6.264,-6.264 -11.376,0 -6.264,6.264 0,7.488 17.064,16.128 0,8.064 -1.512,1.296 -8.136,0 -1.512,-1.296 0,-5.832 -7.272,0 0,4.32 6.264,6.264 13.176,0 6.264,-6.264 0,-8.856 -1.152,-1.296 -15.912,-15.624 0,-5.904 1.512,-1.296 6.336,0 1.512,1.296"
         id="path3419"
         style="font-size:72px;font-variant:normal;font-stretch:normal;line-height:117.99999475%;fill:#000000;font-family:Steps-Mono;-inkscape-font-specification:Steps-Mono" />
    </g>
    <g
       transform="matrix(0.77697224,0,0,0.73588268,-4510.1017,656.73414)"
       id="flowRoot3334"
       style="font-size:40px;font-style:normal;font-weight:normal;line-height:125%;letter-spacing:0px;word-spacing:0px;fill:#000000;fill-opacity:1;stroke:none;font-family:Sans">
      <path
         d="m -554.98775,-91.777503 c -10.51199,0 -19.296,-13.392017 -19.296,-30.455997 0,-17.06399 8.78401,-30.456 19.296,-30.456 l 0,-2.88 c -12.23999,0 -22.176,15.26401 -22.176,33.336 0,18.07198 9.93601,33.335997 22.176,33.335997 l 0,-2.88"
         id="path3340"
         style="font-size:72px;font-variant:normal;font-stretch:normal;line-height:117.99999475%;fill:#000000;font-family:Steps-Mono;-inkscape-font-specification:Steps-Mono" />
      <path
         d="m -522.37175,-109.1295 -9.216,4.68 -1.44,-1.296 0,-33.408 1.44,-1.296 9.216,0 0,31.32 m 7.272,-52.488 -7.272,0 0,17.712 -11.736,0 -6.192,6.336 0,31.536 7.488,5.904 10.44,-5.688 0,4.68 7.272,0 0,-60.48"
         id="path3342"
         style="font-size:72px;font-variant:normal;font-stretch:normal;line-height:117.99999475%;fill:#000000;font-family:Steps-Mono;-inkscape-font-specification:Steps-Mono" />
      <path
         d="m -479.45975,-138.1455 -5.472,-5.688 -13.896,0 0,3.456 11.016,0 1.152,1.296 0,15.192 -13.68,0 -5.616,10.08 0,2.592 5.616,10.08 20.88,0 0,-37.008 m -7.2,33.552 -10.368,0 -2.16,-7.128 0,-1.584 2.16,-7.128 10.368,0 0,15.84"
         id="path3344"
         style="font-size:72px;font-variant:normal;font-stretch:normal;line-height:117.99999475%;fill:#000000;font-family:Steps-Mono;-inkscape-font-specification:Steps-Mono" />
      <path
         d="m -468.22775,-143.8335 0,42.696 7.272,0 0,-39.24 8.712,0 1.512,1.296 0,37.944 7.272,0 0,-36.432 -6.768,-6.264 -18,0"
         id="path3346"
         style="font-size:72px;font-variant:normal;font-stretch:normal;line-height:117.99999475%;fill:#000000;font-family:Steps-Mono;-inkscape-font-specification:Steps-Mono" />
      <path
         d="m -414.01175,-139.0815 0,5.904 7.272,0 0,-4.392 -6.264,-6.264 -11.376,0 -6.264,6.264 0,7.488 17.064,16.128 0,8.064 -1.512,1.296 -8.136,0 -1.512,-1.296 0,-5.832 -7.272,0 0,4.32 6.264,6.264 13.176,0 6.264,-6.264 0,-8.856 -1.152,-1.296 -15.912,-15.624 0,-5.904 1.512,-1.296 6.336,0 1.512,1.296"
         id="path3348"
         style="font-size:72px;font-variant:normal;font-stretch:normal;line-height:117.99999475%;fill:#000000;font-family:Steps-Mono;-inkscape-font-specification:Steps-Mono" />
      <path
         d="m -333.08375,-104.5935 -9.648,0 -1.152,-1.296 0,-52.848 -16.704,0 0,3.456 8.352,0 1.152,1.296 0,48.096 -1.152,1.296 -9.648,0 0,3.456 28.8,0 0,-3.456"
         id="path3350"
         style="font-size:72px;font-variant:normal;font-stretch:normal;line-height:117.99999475%;fill:#000000;font-family:Steps-Mono;-inkscape-font-specification:Steps-Mono" />
      <path
         d="m -298.95575,-138.6495 -6.336,-5.184 -11.592,0 -6.336,5.184 0,32.328 6.192,5.184 16.92,0 0,-3.456 -14.76,0 -1.08,-1.296 0,-16.416 16.992,0 0,-16.344 m -7.272,12.96 -9.72,0 0,-13.392 1.08,-1.296 7.56,0 1.08,1.296 0,13.392"
         id="path3352"
         style="font-size:72px;font-variant:normal;font-stretch:normal;line-height:117.99999475%;fill:#000000;font-family:Steps-Mono;-inkscape-font-specification:Steps-Mono" />
      <path
         d="m -270.01175,-139.0815 0,5.904 7.272,0 0,-4.392 -6.264,-6.264 -11.376,0 -6.264,6.264 0,7.488 17.064,16.128 0,8.064 -1.512,1.296 -8.136,0 -1.512,-1.296 0,-5.832 -7.272,0 0,4.32 6.264,6.264 13.176,0 6.264,-6.264 0,-8.856 -1.152,-1.296 -15.912,-15.624 0,-5.904 1.512,-1.296 6.336,0 1.512,1.296"
         id="path3354"
         style="font-size:72px;font-variant:normal;font-stretch:normal;line-height:117.99999475%;fill:#000000;font-family:Steps-Mono;-inkscape-font-specification:Steps-Mono" />
      <path
         d="m -191.89175,-140.4495 0,-3.456 -12.24,0 0,-12.96 1.512,-1.296 9.504,0 0,-3.456 -12.096,0 -6.12,6.336 0,11.376 -8.784,0 0,3.456 8.784,0 0,39.312 7.2,0 0,-39.312 12.24,0"
         id="path3356"
         style="font-size:72px;font-variant:normal;font-stretch:normal;line-height:117.99999475%;fill:#000000;font-family:Steps-Mono;-inkscape-font-specification:Steps-Mono" />
      <path
         d="m -155.24375,-107.4015 0,-30.168 -6.192,-6.264 -12.816,0 -6.192,6.264 0,30.168 6.192,6.264 12.816,0 6.192,-6.264 m -8.712,-32.976 1.44,1.296 0,33.192 -1.44,1.296 -7.776,0 -1.44,-1.296 0,-33.192 1.44,-1.296 7.776,0"
         id="path3358"
         style="font-size:72px;font-variant:normal;font-stretch:normal;line-height:117.99999475%;fill:#000000;font-family:Steps-Mono;-inkscape-font-specification:Steps-Mono" />
      <path
         d="m -136.66775,-149.8815 9.432,0 0,-9.936 -9.432,0 0,9.936 m 19.224,48.744 0,-3.456 -9.648,0 -1.152,-1.296 0,-38.016 -16.704,0 0,3.456 8.352,0 1.152,1.296 0,33.264 -1.152,1.296 -9.648,0 0,3.456 28.8,0"
         id="path3360"
         style="font-size:72px;font-variant:normal;font-stretch:normal;line-height:117.99999475%;fill:#000000;font-family:Steps-Mono;-inkscape-font-specification:Steps-Mono" />
      <path
         d="m -86.69975,-139.4415 0,7.992 7.272,0 0,-7.488 -9.432,-5.976 -7.848,5.976 0,-4.968 -12.888,0 0,3.456 5.688,0 0,35.856 -6.408,0 0,3.456 25.056,0 0,-3.456 -11.376,0 0,-30.888 7.416,-5.544 2.52,1.584"
         id="path3362"
         style="font-size:72px;font-variant:normal;font-stretch:normal;line-height:117.99999475%;fill:#000000;font-family:Steps-Mono;-inkscape-font-specification:Steps-Mono" />
      <path
         d="m -46.95575,-138.6495 -6.336,-5.184 -11.592,0 -6.336,5.184 0,32.328 6.192,5.184 16.92,0 0,-3.456 -14.76,0 -1.08,-1.296 0,-16.416 16.992,0 0,-16.344 m -7.272,12.96 -9.72,0 0,-13.392 1.08,-1.296 7.56,0 1.08,1.296 0,13.392"
         id="path3364"
         style="font-size:72px;font-variant:normal;font-stretch:normal;line-height:117.99999475%;fill:#000000;font-family:Steps-Mono;-inkscape-font-specification:Steps-Mono" />
      <path
         d="m -18.01175,-139.0815 0,5.904 7.272,0 0,-4.392 -6.264,-6.264 -11.376,0 -6.264,6.264 0,7.488 17.064,16.128 0,8.064 -1.512,1.296 -8.136,0 -1.512,-1.296 0,-5.832 -7.272,0 0,4.32 6.264,6.264 13.176,0 6.264,-6.264 0,-8.856 -1.152,-1.296 -15.912,-15.624 0,-5.904 1.512,-1.296 6.336,0 1.512,1.296"
         id="path3366"
         style="font-size:72px;font-variant:normal;font-stretch:normal;line-height:117.99999475%;fill:#000000;font-family:Steps-Mono;-inkscape-font-specification:Steps-Mono" />
      <path
         d="m 60.54025,-138.1455 -5.472,-5.688 -13.896,0 0,3.456 11.016,0 1.152,1.296 0,15.192 -13.68,0 -5.616,10.08 0,2.592 5.616,10.08 20.88,0 0,-37.008 m -7.2,33.552 -10.368,0 -2.16,-7.128 0,-1.584 2.16,-7.128 10.368,0 0,15.84"
         id="path3368"
         style="font-size:72px;font-variant:normal;font-stretch:normal;line-height:117.99999475%;fill:#000000;font-family:Steps-Mono;-inkscape-font-specification:Steps-Mono" />
      <path
         d="m 97.11625,-107.4015 0,-36.432 -7.2,0 0,37.944 -1.512,1.296 -7.92,0 -1.512,-1.296 0,-37.944 -7.2,0 0,36.432 6.336,6.264 12.672,0 6.336,-6.264"
         id="path3370"
         style="font-size:72px;font-variant:normal;font-stretch:normal;line-height:117.99999475%;fill:#000000;font-family:Steps-Mono;-inkscape-font-specification:Steps-Mono" />
      <path
         d="m 135.27625,-104.5935 -11.232,-17.784 0,-0.936 10.08,-16.488 0,-4.032 -6.48,0 0,4.032 -5.616,10.224 -2.16,0 -5.616,-10.224 0,-4.032 -7.92,0 0,4.032 10.08,16.488 0,0.936 -11.232,17.784 0,3.456 6.408,0 0,-3.312 6.768,-11.52 2.304,0 6.768,11.52 0,3.312 7.848,0 0,-3.456"
         id="path3372"
         style="font-size:72px;font-variant:normal;font-stretch:normal;line-height:117.99999475%;fill:#000000;font-family:Steps-Mono;-inkscape-font-specification:Steps-Mono" />
      <path
         d="m 204.82825,-143.9775 -19.008,0 -6.336,6.336 0,30.096 6.336,6.336 11.808,0 0,14.327997 7.2,0 0,-57.095997 m -7.2,3.456 0,34.56 -1.512,1.296 -7.92,0 -1.512,-1.296 0,-33.264 1.512,-1.296 9.432,0"
         id="path3374"
         style="font-size:72px;font-variant:normal;font-stretch:normal;line-height:117.99999475%;fill:#000000;font-family:Steps-Mono;-inkscape-font-specification:Steps-Mono" />
      <path
         d="m 241.11625,-107.4015 0,-36.432 -7.2,0 0,37.944 -1.512,1.296 -7.92,0 -1.512,-1.296 0,-37.944 -7.2,0 0,36.432 6.336,6.264 12.672,0 6.336,-6.264"
         id="path3376"
         style="font-size:72px;font-variant:normal;font-stretch:normal;line-height:117.99999475%;fill:#000000;font-family:Steps-Mono;-inkscape-font-specification:Steps-Mono" />
      <path
         d="m 277.04425,-138.6495 -6.336,-5.184 -11.592,0 -6.336,5.184 0,32.328 6.192,5.184 16.92,0 0,-3.456 -14.76,0 -1.08,-1.296 0,-16.416 16.992,0 0,-16.344 m -7.272,12.96 -9.72,0 0,-13.392 1.08,-1.296 7.56,0 1.08,1.296 0,13.392"
         id="path3378"
         style="font-size:72px;font-variant:normal;font-stretch:normal;line-height:117.99999475%;fill:#000000;font-family:Steps-Mono;-inkscape-font-specification:Steps-Mono" />
      <path
         d="m 305.98825,-139.0815 0,5.904 7.272,0 0,-4.392 -6.264,-6.264 -11.376,0 -6.264,6.264 0,7.488 17.064,16.128 0,8.064 -1.512,1.296 -8.136,0 -1.512,-1.296 0,-5.832 -7.272,0 0,4.32 6.264,6.264 13.176,0 6.264,-6.264 0,-8.856 -1.152,-1.296 -15.912,-15.624 0,-5.904 1.512,-1.296 6.336,0 1.512,1.296"
         id="path3380"
         style="font-size:72px;font-variant:normal;font-stretch:normal;line-height:117.99999475%;fill:#000000;font-family:Steps-Mono;-inkscape-font-specification:Steps-Mono" />
      <path
         d="m 334.93225,-140.3775 13.176,0 0,-3.456 -13.176,0 0,-11.16 -7.272,0 0,11.16 -7.776,0 0,3.456 7.776,0 0,32.976 6.408,6.264 14.04,0 0,-3.456 -11.664,0 -1.512,-1.296 0,-34.488"
         id="path3382"
         style="font-size:72px;font-variant:normal;font-stretch:normal;line-height:117.99999475%;fill:#000000;font-family:Steps-Mono;-inkscape-font-specification:Steps-Mono" />
      <path
         d="m 367.33225,-149.8815 9.432,0 0,-9.936 -9.432,0 0,9.936 m 19.224,48.744 0,-3.456 -9.648,0 -1.152,-1.296 0,-38.016 -16.704,0 0,3.456 8.352,0 1.152,1.296 0,33.264 -1.152,1.296 -9.648,0 0,3.456 28.8,0"
         id="path3384"
         style="font-size:72px;font-variant:normal;font-stretch:normal;line-height:117.99999475%;fill:#000000;font-family:Steps-Mono;-inkscape-font-specification:Steps-Mono" />
      <path
         d="m 420.75625,-107.4015 0,-30.168 -6.192,-6.264 -12.816,0 -6.192,6.264 0,30.168 6.192,6.264 12.816,0 6.192,-6.264 m -8.712,-32.976 1.44,1.296 0,33.192 -1.44,1.296 -7.776,0 -1.44,-1.296 0,-33.192 1.44,-1.296 7.776,0"
         id="path3386"
         style="font-size:72px;font-variant:normal;font-stretch:normal;line-height:117.99999475%;fill:#000000;font-family:Steps-Mono;-inkscape-font-specification:Steps-Mono" />
      <path
         d="m 431.77225,-143.8335 0,42.696 7.272,0 0,-39.24 8.712,0 1.512,1.296 0,37.944 7.272,0 0,-36.432 -6.768,-6.264 -18,0"
         id="path3388"
         style="font-size:72px;font-variant:normal;font-stretch:normal;line-height:117.99999475%;fill:#000000;font-family:Steps-Mono;-inkscape-font-specification:Steps-Mono" />
      <path
         d="m 485.98825,-139.0815 0,5.904 7.272,0 0,-4.392 -6.264,-6.264 -11.376,0 -6.264,6.264 0,7.488 17.064,16.128 0,8.064 -1.512,1.296 -8.136,0 -1.512,-1.296 0,-5.832 -7.272,0 0,4.32 6.264,6.264 13.176,0 6.264,-6.264 0,-8.856 -1.152,-1.296 -15.912,-15.624 0,-5.904 1.512,-1.296 6.336,0 1.512,1.296"
         id="path3390"
         style="font-size:72px;font-variant:normal;font-stretch:normal;line-height:117.99999475%;fill:#000000;font-family:Steps-Mono;-inkscape-font-specification:Steps-Mono" />
      <path
         d="m 505.64425,-88.897503 c 12.23999,0 22.176,-15.264017 22.176,-33.335997 0,-18.07199 -9.93601,-33.336 -22.176,-33.336 l 0,2.88 c 10.51199,0 19.296,13.39201 19.296,30.456 0,17.06398 -8.78401,30.455997 -19.296,30.455997 l 0,2.88"
         id="path3392"
         style="font-size:72px;font-variant:normal;font-stretch:normal;line-height:117.99999475%;fill:#000000;font-family:Steps-Mono;-inkscape-font-specification:Steps-Mono" />
    </g>
  </g>
</svg>
